<svg width="180" height="51" viewBox="0 0 180 51" fill="none" xmlns="http://www.w3.org/2000/svg">
<g filter="url(#filter0_d_6_258)">
<path d="M0 24.039C0 10.7626 10.7626 0 24.039 0H152.718C165.995 0 176.757 10.7626 176.757 24.039C176.757 37.3154 165.995 48.078 152.718 48.078H24.039C10.7626 48.078 0 37.3154 0 24.039Z" fill="#003181"/>
<path d="M0.805034 24.039C0.805034 11.2072 11.2072 0.805034 24.039 0.805034H152.718C165.55 0.805034 175.952 11.2072 175.952 24.039C175.952 36.8708 165.55 47.273 152.718 47.273H24.039C11.2072 47.273 0.805034 36.8708 0.805034 24.039Z" stroke="white" stroke-width="1.61007"/>
</g>
<path d="M25.7987 11.5211H52.5169V15.1253H25.7987V11.5211ZM36.6111 14.738H40.4535V37.2267H36.6111V14.738ZM38.6365 21.9761L41.079 19.1166C41.8932 19.5138 42.7669 19.9705 43.7002 20.4868C44.6533 20.9832 45.5966 21.5094 46.5299 22.0655C47.4632 22.6215 48.3468 23.1676 49.1809 23.7037C50.0149 24.22 50.7099 24.7164 51.2659 25.193L48.6149 28.4695C48.0986 27.9929 47.4433 27.4766 46.649 26.9206C45.8746 26.3447 45.0207 25.7689 44.0874 25.193C43.174 24.6171 42.2506 24.0512 41.3173 23.4952C40.384 22.9193 39.4904 22.413 38.6365 21.9761ZM79.2947 11.1935L81.9159 9.43609C82.5911 10.0517 83.2861 10.7467 84.001 11.5211C84.7357 12.2956 85.3016 12.9707 85.6988 13.5466L82.8989 15.4827C82.6805 15.0855 82.3627 14.6388 81.9457 14.1423C81.5486 13.626 81.1117 13.1097 80.6351 12.5934C80.1784 12.0771 79.7316 11.6105 79.2947 11.1935ZM58.9805 15.6614H86.1158V18.6103H58.9805V15.6614ZM60.3209 11.3424H73.3077V14.0827H60.3209V11.3424ZM59.7848 19.8911H73.8737V22.4229H59.7848V19.8911ZM59.3975 32.0736H73.8141V34.665H59.3975V32.0736ZM65.1463 9.34673H68.5419V18.4018H65.1463V9.34673ZM62.8527 28.0823V29.1844H70.8355V28.0823H62.8527ZM62.8527 25.3122V26.4143H70.8355V25.3122H62.8527ZM60.3209 23.5548H73.4566V30.9418H60.3209V23.5548ZM65.5037 24.6569H68.1249V30.3162H68.393V37.3458H65.2654V30.3162H65.5037V24.6569ZM65.2059 18.4018H68.4228V24.2101H65.2059V18.4018ZM74.7375 9.34673H78.3118C78.2721 11.9084 78.3019 14.3905 78.4012 16.7933C78.5004 19.1961 78.6692 21.43 78.9075 23.4952C79.1458 25.5405 79.4437 27.3376 79.8011 28.8865C80.1784 30.4354 80.6053 31.6467 81.0819 32.5204C81.5784 33.3942 82.1046 33.831 82.6606 33.831C82.9783 33.831 83.2166 33.4438 83.3755 32.6694C83.5343 31.8949 83.6535 30.6439 83.7329 28.9163C84.1102 29.3134 84.5669 29.6907 85.1031 30.0482C85.6392 30.3857 86.1257 30.6439 86.5626 30.8226C86.4037 32.5502 86.1555 33.8807 85.8179 34.814C85.5002 35.7473 85.0634 36.3926 84.5073 36.7501C83.9513 37.1274 83.2265 37.316 82.3329 37.316C81.3004 37.316 80.3869 36.9487 79.5926 36.2139C78.8182 35.4991 78.1529 34.5062 77.5969 33.2353C77.0409 31.9446 76.5743 30.4255 76.197 28.678C75.8197 26.9107 75.5218 24.9944 75.3034 22.9293C75.1048 20.8442 74.9559 18.6599 74.8566 16.3763C74.7772 14.0728 74.7375 11.7296 74.7375 9.34673ZM82.0351 19.8911L85.1924 20.874C84.4378 23.2768 83.4946 25.5008 82.3627 27.5461C81.2507 29.5915 79.96 31.4382 78.4905 33.0864C77.0211 34.7147 75.363 36.1444 73.5162 37.3756C73.2779 36.9189 72.9205 36.4324 72.4439 35.9161C71.9872 35.4196 71.5503 34.9927 71.1333 34.6353C72.8411 33.6424 74.3899 32.4211 75.78 30.9715C77.1899 29.5021 78.4111 27.8341 79.4437 25.9675C80.4961 24.1009 81.3599 22.0754 82.0351 19.8911ZM96.3921 20.5464H103.273V23.7931H96.3921V20.5464ZM101.903 20.5464H105.358C105.358 20.5464 105.358 20.6258 105.358 20.7847C105.358 20.9435 105.358 21.1322 105.358 21.3506C105.358 21.5492 105.358 21.718 105.358 21.857C105.318 23.9619 105.268 25.6895 105.209 27.0398C105.149 28.3702 105.05 29.4127 104.911 30.1673C104.792 30.902 104.623 31.4183 104.405 31.7162C104.107 32.0935 103.789 32.3616 103.451 32.5204C103.134 32.6793 102.756 32.7984 102.32 32.8779C101.922 32.9573 101.416 33.0069 100.8 33.0268C100.205 33.0268 99.5494 33.0169 98.8345 32.997C98.8147 32.4807 98.7154 31.9048 98.5367 31.2694C98.3579 30.634 98.1395 30.0978 97.8814 29.661C98.4175 29.7007 98.914 29.7305 99.3707 29.7503C99.8473 29.7702 100.205 29.7801 100.443 29.7801C100.642 29.7801 100.81 29.7602 100.949 29.7205C101.108 29.661 101.237 29.5617 101.337 29.4227C101.476 29.2439 101.575 28.8766 101.634 28.3206C101.714 27.7447 101.773 26.8809 101.813 25.7292C101.853 24.5576 101.883 23.0087 101.903 21.0825V20.5464ZM110.838 11.1935L113.013 9.04887C113.569 9.32688 114.155 9.65453 114.77 10.0318C115.386 10.4091 115.972 10.7864 116.528 11.1637C117.103 11.541 117.57 11.9084 117.928 12.2658L115.634 14.6487C115.296 14.3111 114.86 13.9338 114.323 13.5168C113.787 13.0998 113.211 12.6927 112.596 12.2956C111.98 11.8786 111.394 11.5112 110.838 11.1935ZM114.353 18.8783L117.987 19.7421C116.736 23.6143 115.028 27.0398 112.864 30.0184C110.699 32.9772 108.138 35.37 105.179 37.1969C105.02 36.9387 104.782 36.621 104.464 36.2437C104.146 35.8863 103.819 35.5189 103.481 35.1416C103.144 34.7842 102.846 34.4863 102.588 34.248C105.447 32.6991 107.87 30.6141 109.855 27.9929C111.841 25.3519 113.34 22.3137 114.353 18.8783ZM96.5708 13.7849H119.566V17.2997H96.5708V13.7849ZM94.1879 13.7849H97.9409V22.5718C97.9409 23.6838 97.9012 24.9051 97.8218 26.2355C97.7424 27.5461 97.5934 28.8964 97.375 30.2865C97.1566 31.6566 96.8289 32.9772 96.3921 34.248C95.975 35.5189 95.429 36.6607 94.7538 37.6735C94.5552 37.4153 94.2574 37.1274 93.8602 36.8096C93.4829 36.4919 93.0957 36.1742 92.6986 35.8565C92.3213 35.5586 91.9936 35.3501 91.7156 35.231C92.4702 34.0395 93.0163 32.7091 93.3539 31.2396C93.7113 29.7503 93.9397 28.2511 94.0389 26.7419C94.1382 25.2327 94.1879 23.8328 94.1879 22.542V13.7849ZM106.281 9.34673H110.034C109.994 11.7892 110.064 14.182 110.243 16.5252C110.421 18.8684 110.68 21.0627 111.017 23.108C111.375 25.1334 111.792 26.9305 112.268 28.4993C112.745 30.0482 113.271 31.2595 113.847 32.1332C114.423 33.0069 115.008 33.4438 115.604 33.4438C115.942 33.4438 116.2 33.0367 116.379 32.2226C116.577 31.4084 116.716 30.068 116.796 28.2014C117.213 28.5986 117.699 28.9858 118.255 29.3631C118.831 29.7404 119.357 30.0184 119.834 30.1971C119.655 32.0439 119.387 33.4736 119.03 34.4863C118.672 35.4792 118.196 36.1643 117.6 36.5416C117.004 36.9189 116.24 37.1075 115.306 37.1075C114.234 37.1075 113.261 36.7401 112.387 36.0054C111.533 35.2707 110.769 34.248 110.094 32.9374C109.438 31.6268 108.872 30.0879 108.396 28.3206C107.919 26.5533 107.522 24.637 107.204 22.5718C106.907 20.5066 106.678 18.362 106.519 16.138C106.38 13.8941 106.301 11.6303 106.281 9.34673ZM133.982 13.9338V17.9252H144.467V13.9338H133.982ZM130.527 10.5084H148.101V21.3208H130.527V10.5084ZM126.417 23.8228H137.825V37.1373H134.25V27.2483H129.812V37.316H126.417V23.8228ZM140.327 23.8228H152.122V37.1671H148.548V27.2483H143.752V37.316H140.327V23.8228ZM127.906 32.3715H135.74V35.7969H127.906V32.3715ZM141.965 32.3715H150.305V35.7969H141.965V32.3715Z" fill="white"/>
<defs>
<filter id="filter0_d_6_258" x="0" y="0" width="179.501" height="50.8222" filterUnits="userSpaceOnUse" color-interpolation-filters="sRGB">
<feFlood flood-opacity="0" result="BackgroundImageFix"/>
<feColorMatrix in="SourceAlpha" type="matrix" values="0 0 0 0 0 0 0 0 0 0 0 0 0 0 0 0 0 0 127 0" result="hardAlpha"/>
<feOffset dx="2.74416" dy="2.74416"/>
<feComposite in2="hardAlpha" operator="out"/>
<feColorMatrix type="matrix" values="0 0 0 0 0 0 0 0 0 0 0 0 0 0 0 0 0 0 0.17 0"/>
<feBlend mode="normal" in2="BackgroundImageFix" result="effect1_dropShadow_6_258"/>
<feBlend mode="normal" in="SourceGraphic" in2="effect1_dropShadow_6_258" result="shape"/>
</filter>
</defs>
</svg>
