<svg width="180" height="51" viewBox="0 0 180 51" fill="none" xmlns="http://www.w3.org/2000/svg">
<g filter="url(#filter0_d_6_261)">
<path d="M0.478027 24.039C0.478027 10.7626 11.2407 0 24.517 0H153.196C166.473 0 177.235 10.7626 177.235 24.039C177.235 37.3154 166.473 48.078 153.196 48.078H24.517C11.2407 48.078 0.478027 37.3154 0.478027 24.039Z" fill="#003181"/>
<path d="M1.28306 24.039C1.28306 11.2072 11.6853 0.805034 24.517 0.805034H153.196C166.028 0.805034 176.43 11.2072 176.43 24.039C176.43 36.8708 166.028 47.273 153.196 47.273H24.517C11.6853 47.273 1.28306 36.8708 1.28306 24.039Z" stroke="white" stroke-width="1.61007"/>
</g>
<path d="M40.1272 16.555V18.0443H48.1992V16.555H40.1272ZM40.1272 12.8019V14.2615H48.1992V12.8019H40.1272ZM36.8805 10.2403H51.6247V20.5761H36.8805V10.2403ZM35.4209 21.9761H53.1438V24.8654H35.4209V21.9761ZM42.4803 23.5548H45.8461V35.6778L42.4803 34.2182V23.5548ZM39.7399 28.8269C40.2364 30.2964 40.8917 31.3886 41.7058 32.1034C42.52 32.7984 43.4533 33.2651 44.5057 33.5034C45.5582 33.7218 46.6901 33.831 47.9014 33.831C48.1595 33.831 48.5467 33.831 49.063 33.831C49.5992 33.831 50.1751 33.831 50.7906 33.831C51.4261 33.831 52.0317 33.831 52.6076 33.831C53.1835 33.8112 53.6303 33.7913 53.948 33.7715C53.809 34.0097 53.67 34.3175 53.531 34.6948C53.4118 35.0721 53.3026 35.4593 53.2033 35.8565C53.104 36.2536 53.0246 36.6011 52.965 36.899H51.7736H47.7822C46.5511 36.899 45.4192 36.8096 44.3866 36.6309C43.354 36.4522 42.4108 36.1047 41.5569 35.5884C40.703 35.0721 39.9385 34.3275 39.2634 33.3544C38.6081 32.3814 38.0521 31.1105 37.5953 29.5418L39.7399 28.8269ZM44.9227 27.4568H51.5353V30.2567H44.9227V27.4568ZM37.1783 25.759L40.425 26.1462C40.1073 28.5688 39.5612 30.7233 38.7868 32.6098C38.0123 34.4764 36.9599 36.0253 35.6294 37.2564C35.4507 37.0579 35.2025 36.8196 34.8848 36.5416C34.5671 36.2636 34.2394 35.9955 33.9018 35.7373C33.5643 35.4792 33.2664 35.2707 33.0083 35.1118C34.2593 34.1388 35.2124 32.8382 35.8677 31.2098C36.523 29.5815 36.9599 27.7646 37.1783 25.759ZM25.4128 24.4484C26.6241 24.1902 28.0737 23.8427 29.7616 23.4058C31.4494 22.9491 33.1572 22.4825 34.8848 22.0059L35.3614 25.2228C33.7926 25.6795 32.204 26.1462 30.5956 26.6228C28.9871 27.0795 27.5177 27.4965 26.1872 27.8738L25.4128 24.4484ZM25.7106 14.9763H35.1826V18.2528H25.7106V14.9763ZM28.9275 9.34673H32.204V33.1459C32.204 33.9601 32.1147 34.6055 31.9359 35.082C31.7771 35.5586 31.4693 35.9359 31.0126 36.2139C30.5559 36.4919 29.9899 36.6706 29.3148 36.7501C28.6595 36.8494 27.8453 36.899 26.8723 36.899C26.8326 36.4621 26.7234 35.9161 26.5446 35.2608C26.3659 34.6253 26.1673 34.0792 25.9489 33.6225C26.4851 33.6424 26.9914 33.6523 27.468 33.6523C27.9446 33.6523 28.2722 33.6424 28.451 33.6225C28.6297 33.6225 28.7488 33.5927 28.8084 33.5332C28.8878 33.4537 28.9275 33.3147 28.9275 33.1162V9.34673ZM76.9132 22.0059L80.5173 23.0484C79.3854 25.7093 77.906 27.9631 76.0792 29.8099C74.2523 31.6566 72.1176 33.1857 69.6751 34.397C67.2326 35.5884 64.532 36.5515 61.5733 37.2862C61.4343 37.0082 61.2357 36.6706 60.9775 36.2735C60.7194 35.8763 60.4513 35.4792 60.1733 35.082C59.8953 34.6849 59.6372 34.3572 59.3989 34.0991C62.2981 33.5431 64.8994 32.7587 67.2029 31.746C69.5063 30.7333 71.4821 29.4326 73.1303 27.844C74.7785 26.2554 76.0394 24.3094 76.9132 22.0059ZM66.905 16.8529L70.4198 18.1932C69.7248 19.067 68.9205 19.9308 68.0071 20.7847C67.1135 21.6385 66.1802 22.4428 65.2072 23.1973C64.254 23.9519 63.3406 24.6072 62.4668 25.1632C62.2484 24.9249 61.9704 24.637 61.6328 24.2994C61.2953 23.9619 60.9378 23.6342 60.5605 23.3165C60.2031 22.9988 59.8854 22.7406 59.6074 22.542C60.5208 22.0853 61.4243 21.5591 62.3179 20.9634C63.2314 20.3478 64.0852 19.6925 64.8795 18.9975C65.6738 18.2826 66.349 17.5677 66.905 16.8529ZM69.1985 22.1548C70.5091 25.3519 72.614 27.9433 75.5132 29.929C78.4323 31.9148 82.1456 33.2452 86.6533 33.9204C86.415 34.1785 86.1469 34.4963 85.849 34.8735C85.571 35.2508 85.3129 35.6381 85.0746 36.0352C84.8363 36.4522 84.6377 36.8196 84.4789 37.1373C81.3017 36.5416 78.5316 35.6381 76.1685 34.4268C73.8253 33.2154 71.8197 31.6765 70.1517 29.8099C68.5035 27.9234 67.1135 25.6994 65.9816 23.1378L69.1985 22.1548ZM59.8457 13.0998H86.1171V16.5848H59.8457V13.0998ZM75.8409 18.6996L78.6408 16.6741C79.5145 17.2699 80.4379 17.9351 81.4109 18.6698C82.4038 19.4046 83.3371 20.1492 84.2108 20.9038C85.0845 21.6385 85.7994 22.3236 86.3554 22.959L83.2874 25.3122C82.8108 24.6966 82.1556 24.0016 81.3215 23.2271C80.4875 22.4328 79.584 21.6385 78.611 20.8442C77.6578 20.0499 76.7345 19.3351 75.8409 18.6996ZM70.0326 10.151L73.4282 8.95951C73.8253 9.59495 74.2324 10.2999 74.6494 11.0743C75.0863 11.8488 75.404 12.514 75.6026 13.07L71.9984 14.4104C71.8396 13.8544 71.5715 13.1693 71.1942 12.3551C70.8169 11.541 70.4297 10.8063 70.0326 10.151ZM93.7722 10.4488H97.1082V29.512H93.7722V10.4488ZM95.6785 10.4488H103.304V28.1121H95.6785V24.9547H99.9975V13.6062H95.6785V10.4488ZM95.5891 17.4784H101.755V20.6059H95.5891V17.4784ZM104.168 10.3893H117.303V13.487H104.168V10.3893ZM116.171 10.3893H119.567C119.567 10.3893 119.567 10.5382 119.567 10.836C119.567 11.1141 119.557 11.3623 119.537 11.5807C119.458 12.931 119.368 14.0629 119.269 14.9763C119.17 15.8699 119.041 16.5848 118.882 17.1209C118.743 17.6372 118.554 18.0344 118.316 18.3124C118.038 18.6301 117.73 18.8585 117.393 18.9975C117.055 19.1166 116.678 19.1961 116.261 19.2358C115.884 19.2755 115.387 19.3053 114.771 19.3251C114.156 19.345 113.501 19.345 112.806 19.3251C112.786 18.8684 112.696 18.372 112.538 17.8358C112.379 17.2997 112.18 16.833 111.942 16.4359C112.518 16.4954 113.034 16.5351 113.491 16.555C113.967 16.5749 114.325 16.5848 114.563 16.5848C114.762 16.5848 114.92 16.5649 115.04 16.5252C115.179 16.4855 115.308 16.4061 115.427 16.2869C115.566 16.1479 115.675 15.8898 115.754 15.5125C115.854 15.1153 115.933 14.5395 115.993 13.7849C116.072 13.0104 116.132 12.0176 116.171 10.8063V10.3893ZM108.725 11.3424H112.21C112.111 12.4544 111.932 13.487 111.674 14.4402C111.435 15.3735 111.058 16.2274 110.542 17.0018C110.026 17.7564 109.321 18.4315 108.427 19.0273C107.553 19.6031 106.411 20.0996 105.002 20.5166C104.843 20.0996 104.575 19.6329 104.197 19.1166C103.84 18.6003 103.492 18.1833 103.155 17.8656C104.307 17.5677 105.23 17.2202 105.925 16.8231C106.62 16.4061 107.156 15.9295 107.533 15.3933C107.931 14.8373 108.209 14.2317 108.367 13.5764C108.526 12.9012 108.645 12.1566 108.725 11.3424ZM108.427 23.0782V26.2951H115.129V23.0782H108.427ZM105.061 20.2485H118.644V29.1546H105.061V20.2485ZM101.07 30.9418L104.406 30.5248C104.604 31.4978 104.773 32.5701 104.912 33.7417C105.051 34.8934 105.131 35.8664 105.151 36.6607L101.636 37.1969C101.636 36.6607 101.616 36.0352 101.576 35.3203C101.536 34.6055 101.477 33.8608 101.397 33.0864C101.318 32.3119 101.209 31.5971 101.07 30.9418ZM107.414 30.8524L110.75 30.2567C111.008 30.8921 111.257 31.5772 111.495 32.3119C111.733 33.0467 111.942 33.7715 112.121 34.4863C112.299 35.1813 112.428 35.7969 112.508 36.3331L108.933 37.0777C108.894 36.5614 108.784 35.9458 108.606 35.231C108.447 34.5161 108.258 33.7814 108.04 33.0268C107.841 32.2524 107.633 31.5276 107.414 30.8524ZM113.58 30.8524L116.797 29.5716C117.214 30.207 117.651 30.902 118.108 31.6566C118.564 32.4112 118.981 33.1559 119.359 33.8906C119.756 34.6055 120.064 35.2508 120.282 35.8267L116.827 37.316C116.628 36.7401 116.35 36.0749 115.993 35.3203C115.635 34.5856 115.238 33.8211 114.801 33.0268C114.384 32.2325 113.977 31.5077 113.58 30.8524ZM96.0955 29.8099L99.5507 30.763C99.0741 31.8949 98.4983 33.0764 97.8231 34.3076C97.148 35.5189 96.5026 36.5714 95.887 37.4649L92.4318 35.9756C92.8488 35.4792 93.2757 34.8934 93.7126 34.2182C94.1693 33.5232 94.6062 32.7984 95.0232 32.0439C95.4402 31.2893 95.7977 30.5446 96.0955 29.8099ZM131.482 16.7635H151.617V20.457H131.482V16.7635ZM140.686 9.34673H144.558V18.2528H140.686V9.34673ZM129.605 9.97224H133.358V20.04C133.358 21.5492 133.308 23.0881 133.209 24.6569C133.11 26.2057 132.891 27.7348 132.554 29.2439C132.216 30.7333 131.71 32.1829 131.035 33.5927C130.36 34.9828 129.446 36.2735 128.294 37.4649C128.116 37.1671 127.858 36.8295 127.52 36.4522C127.202 36.0948 126.855 35.7373 126.477 35.3799C126.12 35.0423 125.792 34.7643 125.495 34.5459C126.726 33.2154 127.629 31.746 128.205 30.1375C128.801 28.5291 129.178 26.861 129.337 25.1334C129.516 23.386 129.605 21.6782 129.605 20.0102V9.97224ZM131.392 24.2399H148.102V37.316H144.141V27.9929H131.392V24.2399Z" fill="white"/>
<defs>
<filter id="filter0_d_6_261" x="0.478027" y="0" width="179.501" height="50.8222" filterUnits="userSpaceOnUse" color-interpolation-filters="sRGB">
<feFlood flood-opacity="0" result="BackgroundImageFix"/>
<feColorMatrix in="SourceAlpha" type="matrix" values="0 0 0 0 0 0 0 0 0 0 0 0 0 0 0 0 0 0 127 0" result="hardAlpha"/>
<feOffset dx="2.74416" dy="2.74416"/>
<feComposite in2="hardAlpha" operator="out"/>
<feColorMatrix type="matrix" values="0 0 0 0 0 0 0 0 0 0 0 0 0 0 0 0 0 0 0.17 0"/>
<feBlend mode="normal" in2="BackgroundImageFix" result="effect1_dropShadow_6_261"/>
<feBlend mode="normal" in="SourceGraphic" in2="effect1_dropShadow_6_261" result="shape"/>
</filter>
</defs>
</svg>
