<svg width="85" height="23" viewBox="0 0 85 23" fill="none" xmlns="http://www.w3.org/2000/svg">
<mask id="path-1-outside-1_3_48" maskUnits="userSpaceOnUse" x="0" y="0" width="85" height="23" fill="black">
<rect fill="white" width="85" height="23"/>
<path d="M9.56 3.344H11.745V10.906C11.745 11.666 11.7197 12.4893 11.669 13.376C11.631 14.25 11.5487 15.1367 11.422 16.036C11.2953 16.9227 11.1053 17.7777 10.852 18.601C10.6113 19.4243 10.2883 20.159 9.883 20.805C9.769 20.653 9.598 20.4757 9.37 20.273C9.142 20.0703 8.90767 19.874 8.667 19.684C8.439 19.5067 8.24267 19.3737 8.078 19.285C8.42 18.715 8.69234 18.088 8.895 17.404C9.09767 16.7073 9.24334 15.9917 9.332 15.257C9.43334 14.5097 9.49667 13.7687 9.522 13.034C9.54734 12.2867 9.56 11.5773 9.56 10.906V3.344ZM10.643 3.344H18.281V5.738H10.643V3.344ZM17.16 3.344H19.383V18.05C19.383 18.62 19.3323 19.0887 19.231 19.456C19.1297 19.8233 18.9143 20.1147 18.585 20.33C18.2683 20.5327 17.8947 20.6593 17.464 20.71C17.046 20.7733 16.5393 20.805 15.944 20.805C15.906 20.463 15.8173 20.0387 15.678 19.532C15.5387 19.038 15.3867 18.6327 15.222 18.316C15.5513 18.3413 15.8743 18.3603 16.191 18.373C16.5077 18.373 16.7293 18.3667 16.856 18.354C16.97 18.354 17.046 18.3287 17.084 18.278C17.1347 18.2147 17.16 18.1197 17.16 17.993V3.344ZM12.277 7.049H16.609V8.949H12.277V7.049ZM11.992 9.88H16.894V11.78H11.992V9.88ZM13.436 5.985H15.374V11.286H13.436V5.985ZM13.075 12.692H16.742V17.594H13.075V15.713H14.918V14.573H13.075V12.692ZM11.973 12.692H13.778V18.43H11.973V12.692ZM2.872 8.588H8.439V10.64H2.872V8.588ZM2.872 11.21H8.439V13.262H2.872V11.21ZM2.074 5.871H9.028V8.018H2.074V5.871ZM3.917 13.889H8.515V19.798H3.917V17.613H6.349V16.055H3.917V13.889ZM2.796 13.889H4.924V20.558H2.796V13.889ZM3.936 3.667L5.893 2.66C6.13367 3.06533 6.368 3.50867 6.596 3.99C6.83667 4.47133 7.02034 4.89567 7.147 5.263L5.114 6.441C5.01267 6.07367 4.84167 5.63033 4.601 5.111C4.373 4.579 4.15134 4.09767 3.936 3.667ZM24.703 12.673H39.941V14.877H24.703V12.673ZM23.791 3.477H32.607V5.377H23.791V3.477ZM32.417 15.504H38.25V17.499H32.417V15.504ZM23.639 18.107H41.1V20.368H23.639V18.107ZM30.935 13.566H33.652V19.038H30.935V13.566ZM27.078 2.755H29.472V12.331H27.078V2.755ZM26.28 15.409H28.902V19.342H26.28V15.409ZM26.261 7.391V8.094H30.213V7.391H26.261ZM24.152 5.833H32.455V9.652H24.152V5.833ZM34.507 2.774L36.958 3.344C36.6287 4.45867 36.1727 5.529 35.59 6.555C35.02 7.56833 34.3677 8.40433 33.633 9.063C33.519 8.89833 33.3543 8.69567 33.139 8.455C32.9237 8.20167 32.702 7.95467 32.474 7.714C32.2587 7.47333 32.0623 7.28333 31.885 7.144C32.5057 6.63733 33.0377 5.99767 33.481 5.225C33.937 4.45233 34.279 3.63533 34.507 2.774ZM34.773 4.598H41.024V6.764H33.69L34.773 4.598ZM37.452 5.548L39.979 5.757C39.5737 7.657 38.8453 9.16433 37.794 10.279C36.7553 11.381 35.3683 12.2297 33.633 12.825C33.5443 12.6477 33.4113 12.4387 33.234 12.198C33.0567 11.9447 32.8667 11.6977 32.664 11.457C32.4613 11.2163 32.2777 11.02 32.113 10.868C33.6583 10.4627 34.8743 9.842 35.761 9.006C36.6603 8.15733 37.224 7.00467 37.452 5.548ZM35.248 5.833C35.5267 6.50433 35.9383 7.16933 36.483 7.828C37.0277 8.474 37.7117 9.05667 38.535 9.576C39.371 10.0827 40.359 10.4627 41.499 10.716C41.3343 10.8807 41.1507 11.0897 40.948 11.343C40.758 11.5963 40.5743 11.8623 40.397 12.141C40.2323 12.407 40.0993 12.6477 39.998 12.863C38.8327 12.5083 37.8193 12.0017 36.958 11.343C36.1093 10.6843 35.3937 9.956 34.811 9.158C34.241 8.34733 33.7977 7.543 33.481 6.745L35.248 5.833ZM26.793 8.892L28.503 9.557C28.237 9.975 27.9077 10.393 27.515 10.811C27.1223 11.2163 26.698 11.5963 26.242 11.951C25.7987 12.3057 25.349 12.597 24.893 12.825C24.7283 12.559 24.494 12.255 24.19 11.913C23.8987 11.571 23.6263 11.2987 23.373 11.096C23.8037 10.944 24.2343 10.754 24.665 10.526C25.0957 10.2853 25.4947 10.0257 25.862 9.747C26.242 9.45567 26.5523 9.17067 26.793 8.892ZM29.206 10.526L30.289 9.196C30.6437 9.37333 31.0237 9.595 31.429 9.861C31.8343 10.1143 32.151 10.3487 32.379 10.564L31.258 12.027C31.0427 11.8117 30.7387 11.5583 30.346 11.267C29.9533 10.9757 29.5733 10.7287 29.206 10.526ZM45.451 3.42H48.035V15.732H45.451V3.42ZM46.952 3.42H51.835V14.896H46.952V12.464H49.308V5.833H46.952V3.42ZM46.876 7.828H50.657V10.222H46.876V7.828ZM52.253 3.363H60.556V5.757H52.253V3.363ZM59.682 3.363H62.304C62.304 3.363 62.2977 3.47067 62.285 3.686C62.285 3.90133 62.2787 4.085 62.266 4.237C62.228 5.073 62.1773 5.78233 62.114 6.365C62.0507 6.935 61.9683 7.391 61.867 7.733C61.7783 8.075 61.658 8.33467 61.506 8.512C61.3033 8.74 61.0817 8.90467 60.841 9.006C60.6003 9.10733 60.3407 9.17067 60.062 9.196C59.8213 9.234 59.5047 9.25933 59.112 9.272C58.7193 9.28467 58.3013 9.28467 57.858 9.272C57.8453 8.93 57.7757 8.55633 57.649 8.151C57.5223 7.733 57.3703 7.37833 57.193 7.087C57.5223 7.11233 57.82 7.13133 58.086 7.144C58.352 7.15667 58.561 7.163 58.713 7.163C58.8397 7.163 58.941 7.15033 59.017 7.125C59.1057 7.09967 59.188 7.049 59.264 6.973C59.34 6.88433 59.4033 6.726 59.454 6.498C59.5047 6.25733 59.549 5.909 59.587 5.453C59.625 4.997 59.6567 4.408 59.682 3.686V3.363ZM54.932 4.085H57.611C57.5603 4.807 57.459 5.47833 57.307 6.099C57.1677 6.707 56.9333 7.26433 56.604 7.771C56.2873 8.265 55.8377 8.70833 55.255 9.101C54.6723 9.481 53.9123 9.81033 52.975 10.089C52.861 9.77233 52.6647 9.41767 52.386 9.025C52.1073 8.61967 51.835 8.29667 51.569 8.056C52.3037 7.866 52.8863 7.65067 53.317 7.41C53.7477 7.15667 54.0707 6.86533 54.286 6.536C54.514 6.20667 54.666 5.83933 54.742 5.434C54.8307 5.02867 54.894 4.579 54.932 4.085ZM55.407 11.837V13.395H58.96V11.837H55.407ZM52.823 9.671H61.696V15.58H52.823V9.671ZM50.106 16.644L52.671 16.302C52.7977 16.948 52.9053 17.651 52.994 18.411C53.0953 19.1583 53.1523 19.7917 53.165 20.311L50.448 20.748C50.448 20.3933 50.4353 19.9817 50.41 19.513C50.3847 19.0443 50.3467 18.5567 50.296 18.05C50.2453 17.5433 50.182 17.0747 50.106 16.644ZM54.115 16.606L56.718 16.131C56.87 16.549 57.0157 16.9987 57.155 17.48C57.307 17.9487 57.4337 18.411 57.535 18.867C57.649 19.323 57.7313 19.7283 57.782 20.083L55.008 20.653C54.9827 20.311 54.9193 19.9057 54.818 19.437C54.7293 18.981 54.6217 18.506 54.495 18.012C54.381 17.5053 54.2543 17.0367 54.115 16.606ZM58.086 16.644L60.594 15.675C60.8347 16.0803 61.088 16.5237 61.354 17.005C61.62 17.4863 61.867 17.9613 62.095 18.43C62.3357 18.886 62.5257 19.2913 62.665 19.646L59.986 20.786C59.872 20.4313 59.7073 20.0133 59.492 19.532C59.2893 19.0507 59.0613 18.5567 58.808 18.05C58.5547 17.5433 58.314 17.0747 58.086 16.644ZM46.914 15.846L49.593 16.568C49.3017 17.3027 48.947 18.069 48.529 18.867C48.111 19.6523 47.7183 20.33 47.351 20.9L44.672 19.76C44.9127 19.4433 45.166 19.0697 45.432 18.639C45.7107 18.2083 45.9767 17.7523 46.23 17.271C46.496 16.777 46.724 16.302 46.914 15.846ZM69.733 7.391H82.482V10.26H69.733V7.391ZM75.452 2.774H78.454V8.512H75.452V2.774ZM68.289 3.116H71.196V9.595C71.196 10.5703 71.158 11.5647 71.082 12.578C71.0187 13.5913 70.873 14.592 70.645 15.58C70.4297 16.568 70.1003 17.518 69.657 18.43C69.2137 19.342 68.6183 20.1843 67.871 20.957C67.719 20.7163 67.5163 20.4503 67.263 20.159C67.0097 19.8677 66.7437 19.5827 66.465 19.304C66.1863 19.038 65.933 18.8227 65.705 18.658C66.4777 17.8347 67.0477 16.9163 67.415 15.903C67.7823 14.8897 68.0167 13.8383 68.118 12.749C68.232 11.6597 68.289 10.602 68.289 9.576V3.116ZM69.676 12.331H80.62V20.805H77.561V15.238H69.676V12.331Z"/>
</mask>
<path d="M9.56 3.344H11.745V10.906C11.745 11.666 11.7197 12.4893 11.669 13.376C11.631 14.25 11.5487 15.1367 11.422 16.036C11.2953 16.9227 11.1053 17.7777 10.852 18.601C10.6113 19.4243 10.2883 20.159 9.883 20.805C9.769 20.653 9.598 20.4757 9.37 20.273C9.142 20.0703 8.90767 19.874 8.667 19.684C8.439 19.5067 8.24267 19.3737 8.078 19.285C8.42 18.715 8.69234 18.088 8.895 17.404C9.09767 16.7073 9.24334 15.9917 9.332 15.257C9.43334 14.5097 9.49667 13.7687 9.522 13.034C9.54734 12.2867 9.56 11.5773 9.56 10.906V3.344ZM10.643 3.344H18.281V5.738H10.643V3.344ZM17.16 3.344H19.383V18.05C19.383 18.62 19.3323 19.0887 19.231 19.456C19.1297 19.8233 18.9143 20.1147 18.585 20.33C18.2683 20.5327 17.8947 20.6593 17.464 20.71C17.046 20.7733 16.5393 20.805 15.944 20.805C15.906 20.463 15.8173 20.0387 15.678 19.532C15.5387 19.038 15.3867 18.6327 15.222 18.316C15.5513 18.3413 15.8743 18.3603 16.191 18.373C16.5077 18.373 16.7293 18.3667 16.856 18.354C16.97 18.354 17.046 18.3287 17.084 18.278C17.1347 18.2147 17.16 18.1197 17.16 17.993V3.344ZM12.277 7.049H16.609V8.949H12.277V7.049ZM11.992 9.88H16.894V11.78H11.992V9.88ZM13.436 5.985H15.374V11.286H13.436V5.985ZM13.075 12.692H16.742V17.594H13.075V15.713H14.918V14.573H13.075V12.692ZM11.973 12.692H13.778V18.43H11.973V12.692ZM2.872 8.588H8.439V10.64H2.872V8.588ZM2.872 11.21H8.439V13.262H2.872V11.21ZM2.074 5.871H9.028V8.018H2.074V5.871ZM3.917 13.889H8.515V19.798H3.917V17.613H6.349V16.055H3.917V13.889ZM2.796 13.889H4.924V20.558H2.796V13.889ZM3.936 3.667L5.893 2.66C6.13367 3.06533 6.368 3.50867 6.596 3.99C6.83667 4.47133 7.02034 4.89567 7.147 5.263L5.114 6.441C5.01267 6.07367 4.84167 5.63033 4.601 5.111C4.373 4.579 4.15134 4.09767 3.936 3.667ZM24.703 12.673H39.941V14.877H24.703V12.673ZM23.791 3.477H32.607V5.377H23.791V3.477ZM32.417 15.504H38.25V17.499H32.417V15.504ZM23.639 18.107H41.1V20.368H23.639V18.107ZM30.935 13.566H33.652V19.038H30.935V13.566ZM27.078 2.755H29.472V12.331H27.078V2.755ZM26.28 15.409H28.902V19.342H26.28V15.409ZM26.261 7.391V8.094H30.213V7.391H26.261ZM24.152 5.833H32.455V9.652H24.152V5.833ZM34.507 2.774L36.958 3.344C36.6287 4.45867 36.1727 5.529 35.59 6.555C35.02 7.56833 34.3677 8.40433 33.633 9.063C33.519 8.89833 33.3543 8.69567 33.139 8.455C32.9237 8.20167 32.702 7.95467 32.474 7.714C32.2587 7.47333 32.0623 7.28333 31.885 7.144C32.5057 6.63733 33.0377 5.99767 33.481 5.225C33.937 4.45233 34.279 3.63533 34.507 2.774ZM34.773 4.598H41.024V6.764H33.69L34.773 4.598ZM37.452 5.548L39.979 5.757C39.5737 7.657 38.8453 9.16433 37.794 10.279C36.7553 11.381 35.3683 12.2297 33.633 12.825C33.5443 12.6477 33.4113 12.4387 33.234 12.198C33.0567 11.9447 32.8667 11.6977 32.664 11.457C32.4613 11.2163 32.2777 11.02 32.113 10.868C33.6583 10.4627 34.8743 9.842 35.761 9.006C36.6603 8.15733 37.224 7.00467 37.452 5.548ZM35.248 5.833C35.5267 6.50433 35.9383 7.16933 36.483 7.828C37.0277 8.474 37.7117 9.05667 38.535 9.576C39.371 10.0827 40.359 10.4627 41.499 10.716C41.3343 10.8807 41.1507 11.0897 40.948 11.343C40.758 11.5963 40.5743 11.8623 40.397 12.141C40.2323 12.407 40.0993 12.6477 39.998 12.863C38.8327 12.5083 37.8193 12.0017 36.958 11.343C36.1093 10.6843 35.3937 9.956 34.811 9.158C34.241 8.34733 33.7977 7.543 33.481 6.745L35.248 5.833ZM26.793 8.892L28.503 9.557C28.237 9.975 27.9077 10.393 27.515 10.811C27.1223 11.2163 26.698 11.5963 26.242 11.951C25.7987 12.3057 25.349 12.597 24.893 12.825C24.7283 12.559 24.494 12.255 24.19 11.913C23.8987 11.571 23.6263 11.2987 23.373 11.096C23.8037 10.944 24.2343 10.754 24.665 10.526C25.0957 10.2853 25.4947 10.0257 25.862 9.747C26.242 9.45567 26.5523 9.17067 26.793 8.892ZM29.206 10.526L30.289 9.196C30.6437 9.37333 31.0237 9.595 31.429 9.861C31.8343 10.1143 32.151 10.3487 32.379 10.564L31.258 12.027C31.0427 11.8117 30.7387 11.5583 30.346 11.267C29.9533 10.9757 29.5733 10.7287 29.206 10.526ZM45.451 3.42H48.035V15.732H45.451V3.42ZM46.952 3.42H51.835V14.896H46.952V12.464H49.308V5.833H46.952V3.42ZM46.876 7.828H50.657V10.222H46.876V7.828ZM52.253 3.363H60.556V5.757H52.253V3.363ZM59.682 3.363H62.304C62.304 3.363 62.2977 3.47067 62.285 3.686C62.285 3.90133 62.2787 4.085 62.266 4.237C62.228 5.073 62.1773 5.78233 62.114 6.365C62.0507 6.935 61.9683 7.391 61.867 7.733C61.7783 8.075 61.658 8.33467 61.506 8.512C61.3033 8.74 61.0817 8.90467 60.841 9.006C60.6003 9.10733 60.3407 9.17067 60.062 9.196C59.8213 9.234 59.5047 9.25933 59.112 9.272C58.7193 9.28467 58.3013 9.28467 57.858 9.272C57.8453 8.93 57.7757 8.55633 57.649 8.151C57.5223 7.733 57.3703 7.37833 57.193 7.087C57.5223 7.11233 57.82 7.13133 58.086 7.144C58.352 7.15667 58.561 7.163 58.713 7.163C58.8397 7.163 58.941 7.15033 59.017 7.125C59.1057 7.09967 59.188 7.049 59.264 6.973C59.34 6.88433 59.4033 6.726 59.454 6.498C59.5047 6.25733 59.549 5.909 59.587 5.453C59.625 4.997 59.6567 4.408 59.682 3.686V3.363ZM54.932 4.085H57.611C57.5603 4.807 57.459 5.47833 57.307 6.099C57.1677 6.707 56.9333 7.26433 56.604 7.771C56.2873 8.265 55.8377 8.70833 55.255 9.101C54.6723 9.481 53.9123 9.81033 52.975 10.089C52.861 9.77233 52.6647 9.41767 52.386 9.025C52.1073 8.61967 51.835 8.29667 51.569 8.056C52.3037 7.866 52.8863 7.65067 53.317 7.41C53.7477 7.15667 54.0707 6.86533 54.286 6.536C54.514 6.20667 54.666 5.83933 54.742 5.434C54.8307 5.02867 54.894 4.579 54.932 4.085ZM55.407 11.837V13.395H58.96V11.837H55.407ZM52.823 9.671H61.696V15.58H52.823V9.671ZM50.106 16.644L52.671 16.302C52.7977 16.948 52.9053 17.651 52.994 18.411C53.0953 19.1583 53.1523 19.7917 53.165 20.311L50.448 20.748C50.448 20.3933 50.4353 19.9817 50.41 19.513C50.3847 19.0443 50.3467 18.5567 50.296 18.05C50.2453 17.5433 50.182 17.0747 50.106 16.644ZM54.115 16.606L56.718 16.131C56.87 16.549 57.0157 16.9987 57.155 17.48C57.307 17.9487 57.4337 18.411 57.535 18.867C57.649 19.323 57.7313 19.7283 57.782 20.083L55.008 20.653C54.9827 20.311 54.9193 19.9057 54.818 19.437C54.7293 18.981 54.6217 18.506 54.495 18.012C54.381 17.5053 54.2543 17.0367 54.115 16.606ZM58.086 16.644L60.594 15.675C60.8347 16.0803 61.088 16.5237 61.354 17.005C61.62 17.4863 61.867 17.9613 62.095 18.43C62.3357 18.886 62.5257 19.2913 62.665 19.646L59.986 20.786C59.872 20.4313 59.7073 20.0133 59.492 19.532C59.2893 19.0507 59.0613 18.5567 58.808 18.05C58.5547 17.5433 58.314 17.0747 58.086 16.644ZM46.914 15.846L49.593 16.568C49.3017 17.3027 48.947 18.069 48.529 18.867C48.111 19.6523 47.7183 20.33 47.351 20.9L44.672 19.76C44.9127 19.4433 45.166 19.0697 45.432 18.639C45.7107 18.2083 45.9767 17.7523 46.23 17.271C46.496 16.777 46.724 16.302 46.914 15.846ZM69.733 7.391H82.482V10.26H69.733V7.391ZM75.452 2.774H78.454V8.512H75.452V2.774ZM68.289 3.116H71.196V9.595C71.196 10.5703 71.158 11.5647 71.082 12.578C71.0187 13.5913 70.873 14.592 70.645 15.58C70.4297 16.568 70.1003 17.518 69.657 18.43C69.2137 19.342 68.6183 20.1843 67.871 20.957C67.719 20.7163 67.5163 20.4503 67.263 20.159C67.0097 19.8677 66.7437 19.5827 66.465 19.304C66.1863 19.038 65.933 18.8227 65.705 18.658C66.4777 17.8347 67.0477 16.9163 67.415 15.903C67.7823 14.8897 68.0167 13.8383 68.118 12.749C68.232 11.6597 68.289 10.602 68.289 9.576V3.116ZM69.676 12.331H80.62V20.805H77.561V15.238H69.676V12.331Z" fill="#FF9F00"/>
<path d="M9.56 3.344V1.344C8.45543 1.344 7.56 2.23943 7.56 3.344H9.56ZM11.745 3.344H13.745C13.745 2.23943 12.8496 1.344 11.745 1.344V3.344ZM11.669 13.376L9.67226 13.2619C9.67174 13.271 9.67128 13.28 9.67089 13.2891L11.669 13.376ZM11.422 16.036L13.4019 16.3188L13.4025 16.3149L11.422 16.036ZM10.852 18.601L8.94044 18.0128C8.93768 18.0218 8.93497 18.0308 8.93233 18.0399L10.852 18.601ZM9.883 20.805L8.283 22.005C8.67831 22.5321 9.30784 22.8307 9.96612 22.8033C10.6244 22.7759 11.227 22.4261 11.5771 21.868L9.883 20.805ZM9.37 20.273L10.6987 18.7782L9.37 20.273ZM8.667 19.684L9.90629 18.1142C9.9025 18.1112 9.8987 18.1083 9.89488 18.1053L8.667 19.684ZM8.078 19.285L6.36302 18.256C6.08181 18.7247 6.00467 19.288 6.14951 19.815C6.29436 20.342 6.64857 20.7868 7.1298 21.0459L8.078 19.285ZM8.895 17.404L10.8126 17.9722L10.8154 17.9627L8.895 17.404ZM9.332 15.257L7.35014 14.9883C7.34882 14.998 7.34758 15.0077 7.34641 15.0174L9.332 15.257ZM9.522 13.034L11.5208 13.1029L11.5209 13.1018L9.522 13.034ZM10.643 3.344V1.344C9.53843 1.344 8.643 2.23943 8.643 3.344H10.643ZM18.281 3.344H20.281C20.281 2.23943 19.3856 1.344 18.281 1.344V3.344ZM18.281 5.738V7.738C19.3856 7.738 20.281 6.84257 20.281 5.738H18.281ZM10.643 5.738H8.643C8.643 6.84257 9.53843 7.738 10.643 7.738V5.738ZM17.16 3.344V1.344C16.0554 1.344 15.16 2.23943 15.16 3.344H17.16ZM19.383 3.344H21.383C21.383 2.23943 20.4876 1.344 19.383 1.344V3.344ZM19.231 19.456L17.303 18.9241V18.9241L19.231 19.456ZM18.585 20.33L19.6631 22.0145C19.6686 22.011 19.6741 22.0075 19.6795 22.0039L18.585 20.33ZM17.464 20.71L17.2303 18.7237C17.2083 18.7263 17.1863 18.7292 17.1644 18.7326L17.464 20.71ZM15.944 20.805L13.9562 21.0259C14.0688 22.0387 14.9249 22.805 15.944 22.805V20.805ZM15.678 19.532L17.6065 19.0017L17.6029 18.9891L15.678 19.532ZM15.222 18.316L15.3754 16.3219C14.6513 16.2662 13.9539 16.6074 13.5535 17.2132C13.1531 17.8191 13.1125 18.5944 13.4476 19.2387L15.222 18.316ZM16.191 18.373L16.1111 20.3714C16.1377 20.3725 16.1643 20.373 16.191 20.373V18.373ZM16.856 18.354V16.354C16.7895 16.354 16.7231 16.3573 16.657 16.3639L16.856 18.354ZM17.084 18.278L15.5223 17.0286C15.5093 17.0449 15.4965 17.0613 15.484 17.078L17.084 18.278ZM12.277 7.049V5.049C11.1724 5.049 10.277 5.94443 10.277 7.049H12.277ZM16.609 7.049H18.609C18.609 5.94443 17.7136 5.049 16.609 5.049V7.049ZM16.609 8.949V10.949C17.7136 10.949 18.609 10.0536 18.609 8.949H16.609ZM12.277 8.949H10.277C10.277 10.0536 11.1724 10.949 12.277 10.949V8.949ZM11.992 9.88V7.88C10.8874 7.88 9.992 8.77543 9.992 9.88H11.992ZM16.894 9.88H18.894C18.894 8.77543 17.9986 7.88 16.894 7.88V9.88ZM16.894 11.78V13.78C17.9986 13.78 18.894 12.8846 18.894 11.78H16.894ZM11.992 11.78H9.992C9.992 12.8846 10.8874 13.78 11.992 13.78V11.78ZM13.436 5.985V3.985C12.3314 3.985 11.436 4.88043 11.436 5.985H13.436ZM15.374 5.985H17.374C17.374 4.88043 16.4786 3.985 15.374 3.985V5.985ZM15.374 11.286V13.286C16.4786 13.286 17.374 12.3906 17.374 11.286H15.374ZM13.436 11.286H11.436C11.436 12.3906 12.3314 13.286 13.436 13.286V11.286ZM13.075 12.692V10.692C11.9704 10.692 11.075 11.5874 11.075 12.692H13.075ZM16.742 12.692H18.742C18.742 11.5874 17.8466 10.692 16.742 10.692V12.692ZM16.742 17.594V19.594C17.8466 19.594 18.742 18.6986 18.742 17.594H16.742ZM13.075 17.594H11.075C11.075 18.6986 11.9704 19.594 13.075 19.594V17.594ZM13.075 15.713V13.713C11.9704 13.713 11.075 14.6084 11.075 15.713H13.075ZM14.918 15.713V17.713C16.0226 17.713 16.918 16.8176 16.918 15.713H14.918ZM14.918 14.573H16.918C16.918 13.4684 16.0226 12.573 14.918 12.573V14.573ZM13.075 14.573H11.075C11.075 15.6776 11.9704 16.573 13.075 16.573V14.573ZM11.973 12.692V10.692C10.8684 10.692 9.973 11.5874 9.973 12.692H11.973ZM13.778 12.692H15.778C15.778 11.5874 14.8826 10.692 13.778 10.692V12.692ZM13.778 18.43V20.43C14.8826 20.43 15.778 19.5346 15.778 18.43H13.778ZM11.973 18.43H9.973C9.973 19.5346 10.8684 20.43 11.973 20.43V18.43ZM2.872 8.588V6.588C1.76743 6.588 0.872002 7.48343 0.872002 8.588H2.872ZM8.439 8.588H10.439C10.439 7.48343 9.54357 6.588 8.439 6.588V8.588ZM8.439 10.64V12.64C9.54357 12.64 10.439 11.7446 10.439 10.64H8.439ZM2.872 10.64H0.872002C0.872002 11.7446 1.76743 12.64 2.872 12.64V10.64ZM2.872 11.21V9.21C1.76743 9.21 0.872002 10.1054 0.872002 11.21H2.872ZM8.439 11.21H10.439C10.439 10.1054 9.54357 9.21 8.439 9.21V11.21ZM8.439 13.262V15.262C9.54357 15.262 10.439 14.3666 10.439 13.262H8.439ZM2.872 13.262H0.872002C0.872002 14.3666 1.76743 15.262 2.872 15.262V13.262ZM2.074 5.871V3.871C0.969432 3.871 0.0740018 4.76643 0.0740018 5.871H2.074ZM9.028 5.871H11.028C11.028 4.76643 10.1326 3.871 9.028 3.871V5.871ZM9.028 8.018V10.018C10.1326 10.018 11.028 9.12257 11.028 8.018H9.028ZM2.074 8.018H0.0740018C0.0740018 9.12257 0.969432 10.018 2.074 10.018V8.018ZM3.917 13.889V11.889C2.81243 11.889 1.917 12.7844 1.917 13.889H3.917ZM8.515 13.889H10.515C10.515 12.7844 9.61957 11.889 8.515 11.889V13.889ZM8.515 19.798V21.798C9.61957 21.798 10.515 20.9026 10.515 19.798H8.515ZM3.917 19.798H1.917C1.917 20.9026 2.81243 21.798 3.917 21.798V19.798ZM3.917 17.613V15.613C2.81243 15.613 1.917 16.5084 1.917 17.613H3.917ZM6.349 17.613V19.613C7.45357 19.613 8.349 18.7176 8.349 17.613H6.349ZM6.349 16.055H8.349C8.349 14.9504 7.45357 14.055 6.349 14.055V16.055ZM3.917 16.055H1.917C1.917 17.1596 2.81243 18.055 3.917 18.055V16.055ZM2.796 13.889V11.889C1.69143 11.889 0.796002 12.7844 0.796002 13.889H2.796ZM4.924 13.889H6.924C6.924 12.7844 6.02857 11.889 4.924 11.889V13.889ZM4.924 20.558V22.558C6.02857 22.558 6.924 21.6626 6.924 20.558H4.924ZM2.796 20.558H0.796002C0.796002 21.6626 1.69143 22.558 2.796 22.558V20.558ZM3.936 3.667L3.02092 1.88862C2.04678 2.38988 1.65721 3.58155 2.14715 4.56143L3.936 3.667ZM5.893 2.66L7.61271 1.63892C7.07279 0.729588 5.91827 0.397753 4.97792 0.881625L5.893 2.66ZM6.596 3.99L4.78853 4.84617C4.7946 4.85899 4.80081 4.87174 4.80715 4.88443L6.596 3.99ZM7.147 5.263L8.14971 6.99348C8.97739 6.51389 9.34959 5.51535 9.03775 4.61102L7.147 5.263ZM5.114 6.441L3.18602 6.97286C3.35082 7.57028 3.78328 8.05755 4.3569 8.29216C4.93052 8.52676 5.58049 8.48219 6.11671 8.17148L5.114 6.441ZM4.601 5.111L2.76271 5.89884C2.77034 5.91665 2.77823 5.93434 2.78638 5.95192L4.601 5.111ZM9.56 5.344H11.745V1.344H9.56V5.344ZM9.745 3.344V10.906H13.745V3.344H9.745ZM9.745 10.906C9.745 11.6223 9.72111 12.4071 9.67226 13.2619L13.6657 13.4901C13.7182 12.5716 13.745 11.7097 13.745 10.906H9.745ZM9.67089 13.2891C9.63579 14.0965 9.55958 14.919 9.44155 15.7571L13.4025 16.3149C13.5378 15.3543 13.6262 14.4035 13.6671 13.4629L9.67089 13.2891ZM9.4421 15.7532C9.32962 16.5405 9.16187 17.2932 8.94044 18.0128L12.7636 19.1892C13.0488 18.2621 13.261 17.3048 13.4019 16.3188L9.4421 15.7532ZM8.93233 18.0399C8.73703 18.708 8.48494 19.2702 8.18887 19.742L11.5771 21.868C12.0917 21.0478 12.4856 20.1407 12.7717 19.1621L8.93233 18.0399ZM11.483 19.605C11.2554 19.3016 10.9745 19.0233 10.6987 18.7782L8.04128 21.7678C8.12554 21.8427 8.18686 21.902 8.22956 21.9463C8.27358 21.9919 8.2875 22.011 8.283 22.005L11.483 19.605ZM10.6987 18.7782C10.4415 18.5495 10.1773 18.3282 9.90629 18.1142L7.42771 21.2538C7.638 21.4198 7.8425 21.5911 8.04128 21.7678L10.6987 18.7782ZM9.89488 18.1053C9.62079 17.8921 9.32671 17.6859 9.0262 17.5241L7.1298 21.0459C7.15863 21.0615 7.25721 21.1212 7.43912 21.2627L9.89488 18.1053ZM9.79299 20.314C10.2277 19.5894 10.5656 18.806 10.8126 17.9722L6.97741 16.8358C6.81912 17.37 6.61226 17.8406 6.36302 18.256L9.79299 20.314ZM10.8154 17.9627C11.049 17.1595 11.2162 16.3371 11.3176 15.4966L7.34641 15.0174C7.27051 15.6462 7.14631 16.2551 6.97461 16.8453L10.8154 17.9627ZM11.3139 15.5257C11.424 14.7138 11.4931 13.9061 11.5208 13.1029L7.52319 12.9651C7.50022 13.6312 7.44272 14.3055 7.35014 14.9883L11.3139 15.5257ZM11.5209 13.1018C11.5469 12.3343 11.56 11.6023 11.56 10.906H7.56C7.56 11.5524 7.5478 12.239 7.52315 12.9662L11.5209 13.1018ZM11.56 10.906V3.344H7.56V10.906H11.56ZM10.643 5.344H18.281V1.344H10.643V5.344ZM16.281 3.344V5.738H20.281V3.344H16.281ZM18.281 3.738H10.643V7.738H18.281V3.738ZM12.643 5.738V3.344H8.643V5.738H12.643ZM17.16 5.344H19.383V1.344H17.16V5.344ZM17.383 3.344V18.05H21.383V3.344H17.383ZM17.383 18.05C17.383 18.5198 17.3392 18.7929 17.303 18.9241L21.159 19.9879C21.3254 19.3845 21.383 18.7202 21.383 18.05H17.383ZM17.303 18.9241C17.3142 18.8835 17.3394 18.8232 17.3852 18.7612C17.4303 18.7001 17.4736 18.6671 17.4905 18.6561L19.6795 22.0039C20.4019 21.5316 20.9236 20.8412 21.159 19.9879L17.303 18.9241ZM17.5069 18.6455C17.4816 18.6616 17.4064 18.703 17.2303 18.7237L17.6977 22.6963C18.3829 22.6157 19.055 22.4037 19.6631 22.0145L17.5069 18.6455ZM17.1644 18.7326C16.8764 18.7762 16.4761 18.805 15.944 18.805V22.805C16.6026 22.805 17.2156 22.7705 17.7636 22.6874L17.1644 18.7326ZM17.9318 20.5841C17.8778 20.0983 17.7607 19.5628 17.6064 19.0017L13.7496 20.0623C13.8739 20.5145 13.9342 20.8277 13.9562 21.0259L17.9318 20.5841ZM17.6029 18.9891C17.4411 18.4155 17.2449 17.871 16.9964 17.3933L13.4476 19.2387C13.5285 19.3943 13.6362 19.6605 13.7531 20.0749L17.6029 18.9891ZM15.0686 20.3101C15.4214 20.3372 15.7689 20.3577 16.1111 20.3714L16.2709 16.3746C15.9798 16.363 15.6813 16.3454 15.3754 16.3219L15.0686 20.3101ZM16.191 20.373C16.5052 20.373 16.8178 20.3678 17.055 20.3441L16.657 16.3639C16.6629 16.3633 16.6302 16.3664 16.5376 16.3691C16.452 16.3715 16.3376 16.373 16.191 16.373V20.373ZM16.856 20.354C17.118 20.354 18.0513 20.3216 18.684 19.478L15.484 17.078C15.7667 16.701 16.1205 16.5195 16.366 16.4376C16.5982 16.3602 16.7812 16.354 16.856 16.354V20.354ZM18.6457 19.5274C19.1007 18.9587 19.16 18.3334 19.16 17.993H15.16C15.16 17.906 15.1687 17.4706 15.5223 17.0286L18.6457 19.5274ZM19.16 17.993V3.344H15.16V17.993H19.16ZM12.277 9.049H16.609V5.049H12.277V9.049ZM14.609 7.049V8.949H18.609V7.049H14.609ZM16.609 6.949H12.277V10.949H16.609V6.949ZM14.277 8.949V7.049H10.277V8.949H14.277ZM11.992 11.88H16.894V7.88H11.992V11.88ZM14.894 9.88V11.78H18.894V9.88H14.894ZM16.894 9.78H11.992V13.78H16.894V9.78ZM13.992 11.78V9.88H9.992V11.78H13.992ZM13.436 7.985H15.374V3.985H13.436V7.985ZM13.374 5.985V11.286H17.374V5.985H13.374ZM15.374 9.286H13.436V13.286H15.374V9.286ZM15.436 11.286V5.985H11.436V11.286H15.436ZM13.075 14.692H16.742V10.692H13.075V14.692ZM14.742 12.692V17.594H18.742V12.692H14.742ZM16.742 15.594H13.075V19.594H16.742V15.594ZM15.075 17.594V15.713H11.075V17.594H15.075ZM13.075 17.713H14.918V13.713H13.075V17.713ZM16.918 15.713V14.573H12.918V15.713H16.918ZM14.918 12.573H13.075V16.573H14.918V12.573ZM15.075 14.573V12.692H11.075V14.573H15.075ZM11.973 14.692H13.778V10.692H11.973V14.692ZM11.778 12.692V18.43H15.778V12.692H11.778ZM13.778 16.43H11.973V20.43H13.778V16.43ZM13.973 18.43V12.692H9.973V18.43H13.973ZM2.872 10.588H8.439V6.588H2.872V10.588ZM6.439 8.588V10.64H10.439V8.588H6.439ZM8.439 8.64H2.872V12.64H8.439V8.64ZM4.872 10.64V8.588H0.872002V10.64H4.872ZM2.872 13.21H8.439V9.21H2.872V13.21ZM6.439 11.21V13.262H10.439V11.21H6.439ZM8.439 11.262H2.872V15.262H8.439V11.262ZM4.872 13.262V11.21H0.872002V13.262H4.872ZM2.074 7.871H9.028V3.871H2.074V7.871ZM7.028 5.871V8.018H11.028V5.871H7.028ZM9.028 6.018H2.074V10.018H9.028V6.018ZM4.074 8.018V5.871H0.0740018V8.018H4.074ZM3.917 15.889H8.515V11.889H3.917V15.889ZM6.515 13.889V19.798H10.515V13.889H6.515ZM8.515 17.798H3.917V21.798H8.515V17.798ZM5.917 19.798V17.613H1.917V19.798H5.917ZM3.917 19.613H6.349V15.613H3.917V19.613ZM8.349 17.613V16.055H4.349V17.613H8.349ZM6.349 14.055H3.917V18.055H6.349V14.055ZM5.917 16.055V13.889H1.917V16.055H5.917ZM2.796 15.889H4.924V11.889H2.796V15.889ZM2.924 13.889V20.558H6.924V13.889H2.924ZM4.924 18.558H2.796V22.558H4.924V18.558ZM4.796 20.558V13.889H0.796002V20.558H4.796ZM4.85109 5.44537L6.80809 4.43837L4.97792 0.881625L3.02092 1.88862L4.85109 5.44537ZM4.17329 3.68108C4.37839 4.0265 4.58384 4.41406 4.78853 4.84617L8.40348 3.13383C8.15216 2.60327 7.88895 2.10417 7.61271 1.63892L4.17329 3.68108ZM4.80715 4.88443C5.02231 5.31474 5.16672 5.65531 5.25626 5.91498L9.03775 4.61102C8.87396 4.13602 8.65103 3.62792 8.38486 3.09557L4.80715 4.88443ZM6.14429 3.53252L4.11129 4.71052L6.11671 8.17148L8.14971 6.99348L6.14429 3.53252ZM7.04199 5.90914C6.90082 5.3974 6.68199 4.84488 6.41562 4.27008L2.78638 5.95192C3.00134 6.41579 3.12452 6.74994 3.18602 6.97286L7.04199 5.90914ZM6.43929 4.32316C6.19882 3.76207 5.96078 3.24442 5.72486 2.77257L2.14715 4.56143C2.34189 4.95092 2.54718 5.39593 2.76271 5.89884L6.43929 4.32316ZM24.703 12.673V10.673C23.5984 10.673 22.703 11.5684 22.703 12.673H24.703ZM39.941 12.673H41.941C41.941 11.5684 41.0456 10.673 39.941 10.673V12.673ZM39.941 14.877V16.877C41.0456 16.877 41.941 15.9816 41.941 14.877H39.941ZM24.703 14.877H22.703C22.703 15.9816 23.5984 16.877 24.703 16.877V14.877ZM23.791 3.477V1.477C22.6864 1.477 21.791 2.37243 21.791 3.477H23.791ZM32.607 3.477H34.607C34.607 2.37243 33.7116 1.477 32.607 1.477V3.477ZM32.607 5.377V7.377C33.7116 7.377 34.607 6.48157 34.607 5.377H32.607ZM23.791 5.377H21.791C21.791 6.48157 22.6864 7.377 23.791 7.377V5.377ZM32.417 15.504V13.504C31.3124 13.504 30.417 14.3994 30.417 15.504H32.417ZM38.25 15.504H40.25C40.25 14.3994 39.3546 13.504 38.25 13.504V15.504ZM38.25 17.499V19.499C39.3546 19.499 40.25 18.6036 40.25 17.499H38.25ZM32.417 17.499H30.417C30.417 18.6036 31.3124 19.499 32.417 19.499V17.499ZM23.639 18.107V16.107C22.5344 16.107 21.639 17.0024 21.639 18.107H23.639ZM41.1 18.107H43.1C43.1 17.0024 42.2046 16.107 41.1 16.107V18.107ZM41.1 20.368V22.368C42.2046 22.368 43.1 21.4726 43.1 20.368H41.1ZM23.639 20.368H21.639C21.639 21.4726 22.5344 22.368 23.639 22.368V20.368ZM30.935 13.566V11.566C29.8304 11.566 28.935 12.4614 28.935 13.566H30.935ZM33.652 13.566H35.652C35.652 12.4614 34.7566 11.566 33.652 11.566V13.566ZM33.652 19.038V21.038C34.7566 21.038 35.652 20.1426 35.652 19.038H33.652ZM30.935 19.038H28.935C28.935 20.1426 29.8304 21.038 30.935 21.038V19.038ZM27.078 2.755V0.755C25.9734 0.755 25.078 1.65043 25.078 2.755H27.078ZM29.472 2.755H31.472C31.472 1.65043 30.5766 0.755 29.472 0.755V2.755ZM29.472 12.331V14.331C30.5766 14.331 31.472 13.4356 31.472 12.331H29.472ZM27.078 12.331H25.078C25.078 13.4356 25.9734 14.331 27.078 14.331V12.331ZM26.28 15.409V13.409C25.1754 13.409 24.28 14.3044 24.28 15.409H26.28ZM28.902 15.409H30.902C30.902 14.3044 30.0066 13.409 28.902 13.409V15.409ZM28.902 19.342V21.342C30.0066 21.342 30.902 20.4466 30.902 19.342H28.902ZM26.28 19.342H24.28C24.28 20.4466 25.1754 21.342 26.28 21.342V19.342ZM26.261 7.391V5.391C25.1564 5.391 24.261 6.28643 24.261 7.391H26.261ZM26.261 8.094H24.261C24.261 9.19857 25.1564 10.094 26.261 10.094V8.094ZM30.213 8.094V10.094C31.3176 10.094 32.213 9.19857 32.213 8.094H30.213ZM30.213 7.391H32.213C32.213 6.28643 31.3176 5.391 30.213 5.391V7.391ZM24.152 5.833V3.833C23.0474 3.833 22.152 4.72843 22.152 5.833H24.152ZM32.455 5.833H34.455C34.455 4.72843 33.5596 3.833 32.455 3.833V5.833ZM32.455 9.652V11.652C33.5596 11.652 34.455 10.7566 34.455 9.652H32.455ZM24.152 9.652H22.152C22.152 10.7566 23.0474 11.652 24.152 11.652V9.652ZM34.507 2.774L34.96 0.825983C33.9071 0.581123 32.8502 1.21721 32.5736 2.26221L34.507 2.774ZM36.958 3.344L38.876 3.91069C39.0321 3.38243 38.9634 2.81319 38.6861 2.33723C38.4089 1.86128 37.9475 1.52075 37.411 1.39598L36.958 3.344ZM35.59 6.555L33.8509 5.56734L33.8469 5.57448L35.59 6.555ZM33.633 9.063L31.9886 10.2014C32.3154 10.6734 32.8291 10.9822 33.3992 11.0493C33.9693 11.1164 34.5407 10.9353 34.9681 10.5521L33.633 9.063ZM33.139 8.455L31.6151 9.75029C31.6261 9.7632 31.6372 9.77597 31.6485 9.78859L33.139 8.455ZM32.474 7.714L30.9835 9.04759C30.9962 9.06174 31.009 9.07571 31.0221 9.08949L32.474 7.714ZM31.885 7.144L30.6203 5.59468C30.1499 5.97864 29.8794 6.55549 29.8851 7.16265C29.8908 7.7698 30.1719 8.34151 30.6494 8.71664L31.885 7.144ZM33.481 5.225L31.7586 4.20849C31.7544 4.21552 31.7503 4.22258 31.7463 4.22966L33.481 5.225ZM34.773 4.598V2.598C34.0155 2.598 33.3229 3.026 32.9841 3.70357L34.773 4.598ZM41.024 4.598H43.024C43.024 3.49343 42.1286 2.598 41.024 2.598V4.598ZM41.024 6.764V8.764C42.1286 8.764 43.024 7.86857 43.024 6.764H41.024ZM33.69 6.764L31.9011 5.86957C31.5912 6.48955 31.6243 7.22583 31.9887 7.81546C32.3531 8.40509 32.9968 8.764 33.69 8.764V6.764ZM37.452 5.548L37.6169 3.55481C36.5722 3.46841 35.6381 4.20316 35.4761 5.23872L37.452 5.548ZM39.979 5.757L41.935 6.17428C42.0549 5.61211 41.9272 5.02552 41.5843 4.56414C41.2415 4.10275 40.7167 3.81118 40.1439 3.7638L39.979 5.757ZM37.794 10.279L36.3391 8.90672L36.3386 8.90723L37.794 10.279ZM33.633 12.825L31.8442 13.7194C32.2922 14.6156 33.3343 15.0419 34.282 14.7168L33.633 12.825ZM33.234 12.198L31.5955 13.3449C31.6048 13.3582 31.6143 13.3714 31.6239 13.3844L33.234 12.198ZM32.664 11.457L34.1938 10.1687V10.1687L32.664 11.457ZM32.113 10.868L31.6056 8.93344C30.8988 9.11883 30.3493 9.67495 30.1725 10.3839C29.9956 11.093 30.2195 11.842 30.7564 12.3376L32.113 10.868ZM35.761 9.006L37.133 10.4612L37.1336 10.4606L35.761 9.006ZM35.248 5.833L37.0952 5.06624C36.8808 4.54972 36.4599 4.14656 35.9346 3.95456C35.4094 3.76256 34.8277 3.79926 34.3307 4.05576L35.248 5.833ZM36.483 7.828L34.9417 9.10253C34.9458 9.10744 34.9499 9.11233 34.954 9.1172L36.483 7.828ZM38.535 9.576L37.468 11.2676C37.4781 11.274 37.4882 11.2802 37.4984 11.2864L38.535 9.576ZM41.499 10.716L42.9132 12.1302C43.4294 11.6141 43.6233 10.8577 43.4192 10.1568C43.2152 9.45597 42.6454 8.92198 41.9329 8.76363L41.499 10.716ZM40.948 11.343L39.3863 10.0936C39.3733 10.1099 39.3605 10.1263 39.348 10.143L40.948 11.343ZM40.397 12.141L38.7097 11.0672C38.7052 11.0742 38.7008 11.0812 38.6965 11.0883L40.397 12.141ZM39.998 12.863L39.4157 14.7763C40.366 15.0656 41.3847 14.6134 41.8076 13.7146L39.998 12.863ZM36.958 11.343L35.7318 12.923C35.7355 12.9259 35.7393 12.9288 35.7431 12.9317L36.958 11.343ZM34.811 9.158L33.1749 10.3084C33.1818 10.3181 33.1887 10.3278 33.1958 10.3374L34.811 9.158ZM33.481 6.745L32.5637 4.96776C31.65 5.43935 31.2428 6.52695 31.622 7.48269L33.481 6.745ZM26.793 8.892L27.5179 7.02799C26.7291 6.72123 25.8326 6.94421 25.2794 7.58476L26.793 8.892ZM28.503 9.557L30.1903 10.6308C30.5117 10.1257 30.59 9.50324 30.4036 8.93435C30.2172 8.36546 29.7858 7.90997 29.2279 7.69299L28.503 9.557ZM27.515 10.811L28.9515 12.2026C28.9586 12.1952 28.9657 12.1878 28.9727 12.1804L27.515 10.811ZM26.242 11.951L25.0141 10.3723C25.0069 10.3779 24.9997 10.3836 24.9926 10.3893L26.242 11.951ZM24.893 12.825L23.1925 13.8777C23.7369 14.7572 24.8622 15.0765 25.7874 14.6139L24.893 12.825ZM24.19 11.913L22.6675 13.2099C22.6766 13.2206 22.6859 13.2312 22.6952 13.2417L24.19 11.913ZM23.373 11.096L22.7074 9.21002C22.0224 9.45178 21.5223 10.0459 21.4011 10.7621C21.2798 11.4783 21.5564 12.204 22.1236 12.6577L23.373 11.096ZM24.665 10.526L25.6008 12.2936C25.6141 12.2865 25.6274 12.2793 25.6406 12.2719L24.665 10.526ZM25.862 9.747L27.0708 11.3404L27.0789 11.3342L25.862 9.747ZM29.206 10.526L27.6551 9.26315C27.2808 9.72285 27.1297 10.3249 27.2426 10.9069C27.3555 11.4889 27.7208 11.9908 28.2398 12.2772L29.206 10.526ZM30.289 9.196L31.1834 7.40715C30.3457 6.98829 29.3295 7.20688 28.7381 7.93315L30.289 9.196ZM31.429 9.861L30.3317 11.5331C30.344 11.5412 30.3565 11.5492 30.369 11.557L31.429 9.861ZM32.379 10.564L33.9665 11.7804C34.5899 10.9669 34.4974 9.81371 33.7522 9.10997L32.379 10.564ZM31.258 12.027L29.8438 13.4412C30.2512 13.8486 30.8146 14.0606 31.3895 14.0227C31.9644 13.9848 32.4951 13.7008 32.8455 13.2434L31.258 12.027ZM30.346 11.267L31.5377 9.6608L30.346 11.267ZM24.703 14.673H39.941V10.673H24.703V14.673ZM37.941 12.673V14.877H41.941V12.673H37.941ZM39.941 12.877H24.703V16.877H39.941V12.877ZM26.703 14.877V12.673H22.703V14.877H26.703ZM23.791 5.477H32.607V1.477H23.791V5.477ZM30.607 3.477V5.377H34.607V3.477H30.607ZM32.607 3.377H23.791V7.377H32.607V3.377ZM25.791 5.377V3.477H21.791V5.377H25.791ZM32.417 17.504H38.25V13.504H32.417V17.504ZM36.25 15.504V17.499H40.25V15.504H36.25ZM38.25 15.499H32.417V19.499H38.25V15.499ZM34.417 17.499V15.504H30.417V17.499H34.417ZM23.639 20.107H41.1V16.107H23.639V20.107ZM39.1 18.107V20.368H43.1V18.107H39.1ZM41.1 18.368H23.639V22.368H41.1V18.368ZM25.639 20.368V18.107H21.639V20.368H25.639ZM30.935 15.566H33.652V11.566H30.935V15.566ZM31.652 13.566V19.038H35.652V13.566H31.652ZM33.652 17.038H30.935V21.038H33.652V17.038ZM32.935 19.038V13.566H28.935V19.038H32.935ZM27.078 4.755H29.472V0.755H27.078V4.755ZM27.472 2.755V12.331H31.472V2.755H27.472ZM29.472 10.331H27.078V14.331H29.472V10.331ZM29.078 12.331V2.755H25.078V12.331H29.078ZM26.28 17.409H28.902V13.409H26.28V17.409ZM26.902 15.409V19.342H30.902V15.409H26.902ZM28.902 17.342H26.28V21.342H28.902V17.342ZM28.28 19.342V15.409H24.28V19.342H28.28ZM24.261 7.391V8.094H28.261V7.391H24.261ZM26.261 10.094H30.213V6.094H26.261V10.094ZM32.213 8.094V7.391H28.213V8.094H32.213ZM30.213 5.391H26.261V9.391H30.213V5.391ZM24.152 7.833H32.455V3.833H24.152V7.833ZM30.455 5.833V9.652H34.455V5.833H30.455ZM32.455 7.652H24.152V11.652H32.455V7.652ZM26.152 9.652V5.833H22.152V9.652H26.152ZM34.054 4.72202L36.505 5.29202L37.411 1.39598L34.96 0.825983L34.054 4.72202ZM35.04 2.77731C34.7546 3.74305 34.3592 4.67234 33.8509 5.56735L37.3291 7.54265C37.9862 6.38566 38.5027 5.17428 38.876 3.91069L35.04 2.77731ZM33.8469 5.57448C33.3655 6.43025 32.8435 7.08467 32.2979 7.57386L34.9681 10.5521C35.8918 9.72399 36.6745 8.70641 37.3332 7.53552L33.8469 5.57448ZM35.2774 7.92458C35.0966 7.66343 34.8711 7.39141 34.6295 7.12141L31.6485 9.78859C31.8376 9.99992 31.9414 10.1332 31.9886 10.2014L35.2774 7.92458ZM34.6629 7.15971C34.4244 6.87908 34.1787 6.60533 33.9259 6.33851L31.0221 9.08949C31.2253 9.304 31.423 9.52425 31.6151 9.75029L34.6629 7.15971ZM33.9645 6.38041C33.7016 6.0866 33.4196 5.80626 33.1206 5.57136L30.6494 8.71664C30.7051 8.76041 30.8157 8.86006 30.9835 9.04759L33.9645 6.38041ZM33.1498 8.69332C33.9796 8.01591 34.6644 7.18119 35.2157 6.22034L31.7463 4.22966C31.4109 4.81414 31.0317 5.25876 30.6203 5.59468L33.1498 8.69332ZM35.2034 6.24151C35.7519 5.31217 36.1652 4.32547 36.4404 3.28578L32.5736 2.26221C32.3928 2.9452 32.1221 3.5925 31.7586 4.20849L35.2034 6.24151ZM34.773 6.598H41.024V2.598H34.773V6.598ZM39.024 4.598V6.764H43.024V4.598H39.024ZM41.024 4.764H33.69V8.764H41.024V4.764ZM35.4789 7.65843L36.5619 5.49243L32.9841 3.70357L31.9011 5.86957L35.4789 7.65843ZM37.2872 7.54119L39.8142 7.75019L40.1439 3.7638L37.6169 3.55481L37.2872 7.54119ZM38.023 5.33972C37.6739 6.97633 37.08 8.12117 36.3391 8.90672L39.2489 11.6513C40.6107 10.2075 41.4735 8.33767 41.935 6.17428L38.023 5.33972ZM36.3386 8.90723C35.5649 9.72806 34.4766 10.4212 32.984 10.9332L34.282 14.7168C36.26 14.0382 37.9457 13.0339 39.2494 11.6508L36.3386 8.90723ZM35.4219 11.9306C35.2634 11.6136 35.0589 11.303 34.8441 11.0116L31.6239 13.3844C31.7638 13.5743 31.8253 13.6818 31.8442 13.7194L35.4219 11.9306ZM34.8725 11.0511C34.6604 10.7482 34.4341 10.4541 34.1938 10.1687L31.1342 12.7453C31.2992 12.9413 31.4529 13.1411 31.5955 13.3449L34.8725 11.0511ZM34.1938 10.1687C33.957 9.88744 33.7147 9.62468 33.4696 9.39839L30.7564 12.3376C30.8406 12.4153 30.9657 12.5452 31.1342 12.7453L34.1938 10.1687ZM32.6204 12.8026C34.3921 12.3379 35.9388 11.5872 37.133 10.4612L34.389 7.55082C33.8099 8.09679 32.9246 8.58747 31.6056 8.93344L32.6204 12.8026ZM37.1336 10.4606C38.4143 9.25211 39.145 7.66485 39.4279 5.85728L35.4761 5.23872C35.303 6.34448 34.9064 7.06255 34.3884 7.5514L37.1336 10.4606ZM33.4008 6.59976C33.7677 7.48354 34.2921 8.31692 34.9417 9.10253L38.0243 6.55347C37.5846 6.02175 37.2857 5.52512 37.0952 5.06624L33.4008 6.59976ZM34.954 9.1172C35.6494 9.94206 36.4968 10.655 37.468 11.2676L39.602 7.8844C38.9266 7.45836 38.4059 7.00594 38.012 6.5388L34.954 9.1172ZM37.4984 11.2864C38.553 11.9256 39.7526 12.3767 41.0651 12.6684L41.9329 8.76363C40.9654 8.54864 40.189 8.23977 39.5716 7.8656L37.4984 11.2864ZM40.0848 9.30179C39.8522 9.5344 39.6186 9.80319 39.3863 10.0936L42.5097 12.5924C42.6827 12.3761 42.8165 12.2269 42.9132 12.1302L40.0848 9.30179ZM39.348 10.143C39.126 10.439 38.9133 10.7472 38.7097 11.0672L42.0843 13.2148C42.2354 12.9774 42.39 12.7537 42.548 12.543L39.348 10.143ZM38.6965 11.0883C38.5033 11.4003 38.3305 11.7095 38.1884 12.0114L41.8076 13.7146C41.8682 13.5859 41.9614 13.4137 42.0975 13.1937L38.6965 11.0883ZM40.5803 10.9497C39.6155 10.656 38.8225 10.2511 38.1729 9.75428L35.7431 12.9317C36.8162 13.7523 38.0498 14.3606 39.4157 14.7763L40.5803 10.9497ZM38.1842 9.76303C37.4705 9.20911 36.8895 8.613 36.4263 7.97861L33.1958 10.3374C33.8979 11.299 34.7481 12.1596 35.7318 12.923L38.1842 9.76303ZM36.4471 8.00765C35.9538 7.30608 35.5907 6.63914 35.34 6.00731L31.622 7.48269C32.0046 8.44686 32.5282 9.38859 33.1749 10.3084L36.4471 8.00765ZM34.3983 8.52224L36.1653 7.61024L34.3307 4.05576L32.5637 4.96776L34.3983 8.52224ZM26.0681 10.756L27.7781 11.421L29.2279 7.69299L27.5179 7.02799L26.0681 10.756ZM26.8157 8.48325C26.6263 8.78081 26.3774 9.1009 26.0573 9.44165L28.9727 12.1804C29.4379 11.6851 29.8477 11.1692 30.1903 10.6308L26.8157 8.48325ZM26.0785 9.41941C25.7524 9.756 25.398 10.0737 25.0141 10.3723L27.4699 13.5297C27.998 13.119 28.4922 12.6767 28.9515 12.2026L26.0785 9.41941ZM24.9926 10.3893C24.647 10.6657 24.3153 10.8778 23.9986 11.0361L25.7874 14.6139C26.3827 14.3162 26.9503 13.9456 27.4914 13.5127L24.9926 10.3893ZM26.5935 11.7723C26.3476 11.3751 26.0336 10.9767 25.6848 10.5843L22.6952 13.2417C22.9544 13.5333 23.109 13.7429 23.1925 13.8777L26.5935 11.7723ZM25.7125 10.6161C25.3677 10.2113 25.0046 9.84003 24.6224 9.53426L22.1236 12.6577C22.2481 12.7573 22.4297 12.9307 22.6675 13.2099L25.7125 10.6161ZM24.0386 12.982C24.5681 12.7951 25.0889 12.5646 25.6008 12.2936L23.7292 8.75842C23.3798 8.94341 23.0392 9.09288 22.7074 9.21002L24.0386 12.982ZM25.6406 12.2719C26.1469 11.989 26.6244 11.679 27.0708 11.3404L24.6532 8.15362C24.3649 8.37234 24.0445 8.58167 23.6894 8.78011L25.6406 12.2719ZM27.0789 11.3342C27.5367 10.9832 27.9549 10.6065 28.3066 10.1992L25.2794 7.58476C25.1497 7.73484 24.9473 7.92815 24.6451 8.15979L27.0789 11.3342ZM30.7569 11.7889L31.8399 10.4589L28.7381 7.93315L27.6551 9.26315L30.7569 11.7889ZM29.3946 10.9849C29.6661 11.1206 29.9779 11.3009 30.3317 11.5331L32.5263 8.1889C32.0695 7.88909 31.6213 7.62607 31.1834 7.40715L29.3946 10.9849ZM30.369 11.557C30.714 11.7726 30.91 11.9276 31.0058 12.018L33.7522 9.10997C33.392 8.76978 32.9547 8.45607 32.489 8.165L30.369 11.557ZM30.7915 9.34757L29.6705 10.8106L32.8455 13.2434L33.9665 11.7804L30.7915 9.34757ZM32.6722 10.6128C32.3589 10.2995 31.9681 9.98014 31.5377 9.6608L29.1543 12.8732C29.5092 13.1365 29.7264 13.3239 29.8438 13.4412L32.6722 10.6128ZM31.5377 9.6608C31.0846 9.32465 30.6294 9.02711 30.1722 8.77485L28.2398 12.2772C28.5173 12.4302 28.8221 12.6267 29.1543 12.8732L31.5377 9.6608ZM45.451 3.42V1.42C44.3464 1.42 43.451 2.31543 43.451 3.42H45.451ZM48.035 3.42H50.035C50.035 2.31543 49.1396 1.42 48.035 1.42V3.42ZM48.035 15.732V17.732C49.1396 17.732 50.035 16.8366 50.035 15.732H48.035ZM45.451 15.732H43.451C43.451 16.8366 44.3464 17.732 45.451 17.732V15.732ZM46.952 3.42V1.42C45.8474 1.42 44.952 2.31543 44.952 3.42H46.952ZM51.835 3.42H53.835C53.835 2.31543 52.9396 1.42 51.835 1.42V3.42ZM51.835 14.896V16.896C52.9396 16.896 53.835 16.0006 53.835 14.896H51.835ZM46.952 14.896H44.952C44.952 16.0006 45.8474 16.896 46.952 16.896V14.896ZM46.952 12.464V10.464C45.8474 10.464 44.952 11.3594 44.952 12.464H46.952ZM49.308 12.464V14.464C50.4126 14.464 51.308 13.5686 51.308 12.464H49.308ZM49.308 5.833H51.308C51.308 4.72843 50.4126 3.833 49.308 3.833V5.833ZM46.952 5.833H44.952C44.952 6.93757 45.8474 7.833 46.952 7.833V5.833ZM46.876 7.828V5.828C45.7714 5.828 44.876 6.72343 44.876 7.828H46.876ZM50.657 7.828H52.657C52.657 6.72343 51.7616 5.828 50.657 5.828V7.828ZM50.657 10.222V12.222C51.7616 12.222 52.657 11.3266 52.657 10.222H50.657ZM46.876 10.222H44.876C44.876 11.3266 45.7714 12.222 46.876 12.222V10.222ZM52.253 3.363V1.363C51.1484 1.363 50.253 2.25843 50.253 3.363H52.253ZM60.556 3.363H62.556C62.556 2.25843 61.6606 1.363 60.556 1.363V3.363ZM60.556 5.757V7.757C61.6606 7.757 62.556 6.86157 62.556 5.757H60.556ZM52.253 5.757H50.253C50.253 6.86157 51.1484 7.757 52.253 7.757V5.757ZM59.682 3.363V1.363C58.5774 1.363 57.682 2.25843 57.682 3.363H59.682ZM62.304 3.363L64.3006 3.48044C64.3329 2.93057 64.137 2.3917 63.7591 1.99094C63.3813 1.59017 62.8548 1.363 62.304 1.363V3.363ZM62.285 3.686L60.2885 3.56856C60.2862 3.60766 60.285 3.64683 60.285 3.686H62.285ZM62.266 4.237L60.2729 4.07091C60.2708 4.09597 60.2692 4.12106 60.2681 4.14618L62.266 4.237ZM62.114 6.365L64.1018 6.58586L64.1023 6.58112L62.114 6.365ZM61.867 7.733L59.9494 7.16482C59.9429 7.1868 59.9368 7.20889 59.931 7.23108L61.867 7.733ZM61.506 8.512L63.0008 9.84072C63.0088 9.83175 63.0167 9.8227 63.0245 9.81358L61.506 8.512ZM60.841 9.006L61.6171 10.8493V10.8493L60.841 9.006ZM60.062 9.196L59.8809 7.20421C59.8371 7.20819 59.7935 7.21362 59.7501 7.22047L60.062 9.196ZM57.858 9.272L55.8594 9.34603C55.8984 10.399 56.7476 11.2411 57.8009 11.2712L57.858 9.272ZM57.649 8.151L55.735 8.73101C55.7366 8.73653 55.7383 8.74204 55.74 8.74755L57.649 8.151ZM57.193 7.087L57.3464 5.09289C56.5982 5.03534 55.8808 5.40141 55.4884 6.04096C55.0959 6.68051 55.0945 7.48593 55.4846 8.12689L57.193 7.087ZM58.086 7.144L57.9909 9.14174L58.086 7.144ZM59.017 7.125L58.4676 5.20196C58.4397 5.20991 58.412 5.21847 58.3846 5.22763L59.017 7.125ZM59.264 6.973L60.6782 8.38722C60.7144 8.35102 60.7492 8.31345 60.7825 8.27458L59.264 6.973ZM59.454 6.498L61.4064 6.93186C61.408 6.92459 61.4096 6.91731 61.4111 6.91002L59.454 6.498ZM59.587 5.453L57.5939 5.28691L57.5939 5.28691L59.587 5.453ZM59.682 3.686L61.6808 3.75613C61.6816 3.73276 61.682 3.70938 61.682 3.686H59.682ZM54.932 4.085V2.085C53.8869 2.085 53.018 2.88961 52.9379 3.93161L54.932 4.085ZM57.611 4.085L59.6061 4.22501C59.6449 3.67161 59.4522 3.12695 59.0739 2.72118C58.6956 2.31542 58.1658 2.085 57.611 2.085V4.085ZM57.307 6.099L55.3644 5.62326C55.362 5.63291 55.3598 5.64257 55.3575 5.65225L57.307 6.099ZM56.604 7.771L54.9271 6.681L54.9202 6.69167L56.604 7.771ZM55.255 9.101L56.3475 10.7762C56.356 10.7707 56.3644 10.7652 56.3727 10.7595L55.255 9.101ZM52.975 10.089L51.0932 10.7664C51.4525 11.7644 52.5283 12.3083 53.5449 12.0061L52.975 10.089ZM52.386 9.025L50.7379 10.1581C50.7435 10.1662 50.7492 10.1744 50.755 10.1825L52.386 9.025ZM51.569 8.056L51.0682 6.11971C50.3561 6.30387 49.8026 6.86405 49.6269 7.5783C49.4512 8.29255 49.6818 9.04559 50.2272 9.53907L51.569 8.056ZM53.317 7.41L54.2926 9.15589C54.3055 9.14869 54.3183 9.14135 54.331 9.13387L53.317 7.41ZM54.286 6.536L52.6416 5.39758C52.6316 5.41209 52.6217 5.42673 52.6121 5.4415L54.286 6.536ZM54.742 5.434L52.7882 5.00661C52.7839 5.02615 52.7799 5.04576 52.7763 5.06542L54.742 5.434ZM55.407 11.837V9.837C54.3024 9.837 53.407 10.7324 53.407 11.837H55.407ZM55.407 13.395H53.407C53.407 14.4996 54.3024 15.395 55.407 15.395V13.395ZM58.96 13.395V15.395C60.0646 15.395 60.96 14.4996 60.96 13.395H58.96ZM58.96 11.837H60.96C60.96 10.7324 60.0646 9.837 58.96 9.837V11.837ZM52.823 9.671V7.671C51.7184 7.671 50.823 8.56643 50.823 9.671H52.823ZM61.696 9.671H63.696C63.696 8.56643 62.8006 7.671 61.696 7.671V9.671ZM61.696 15.58V17.58C62.8006 17.58 63.696 16.6846 63.696 15.58H61.696ZM52.823 15.58H50.823C50.823 16.6846 51.7184 17.58 52.823 17.58V15.58ZM50.106 16.644L49.8417 14.6615C49.3014 14.7336 48.814 15.023 48.4921 15.4628C48.1702 15.9027 48.0417 16.4548 48.1364 16.9916L50.106 16.644ZM52.671 16.302L54.6336 15.9172C54.4302 14.8798 53.4546 14.1798 52.4067 14.3195L52.671 16.302ZM52.994 18.411L51.0075 18.6428C51.0089 18.6551 51.0105 18.6674 51.0121 18.6797L52.994 18.411ZM53.165 20.311L53.4826 22.2856C54.4704 22.1267 55.1888 21.2624 55.1644 20.2622L53.165 20.311ZM50.448 20.748H48.448C48.448 21.3339 48.7049 21.8904 49.1509 22.2704C49.5969 22.6504 50.1871 22.8157 50.7656 22.7226L50.448 20.748ZM50.41 19.513L52.4071 19.405L50.41 19.513ZM50.296 18.05L48.3059 18.249V18.249L50.296 18.05ZM54.115 16.606L53.756 14.6385C53.1889 14.742 52.694 15.0851 52.3983 15.58C52.1025 16.0748 52.0347 16.6732 52.2121 17.2216L54.115 16.606ZM56.718 16.131L58.5976 15.4475C58.2643 14.5309 57.3184 13.9884 56.359 14.1635L56.718 16.131ZM57.155 17.48L55.2339 18.0361C55.2398 18.0565 55.246 18.0768 55.2526 18.097L57.155 17.48ZM57.535 18.867L55.5826 19.3009C55.5864 19.318 55.5905 19.3351 55.5947 19.3521L57.535 18.867ZM57.782 20.083L58.1846 22.0421C59.2203 21.8292 59.9114 20.8469 59.7619 19.8002L57.782 20.083ZM55.008 20.653L53.0135 20.8007C53.056 21.3744 53.3433 21.9019 53.8023 22.2487C54.2612 22.5954 54.8471 22.7278 55.4106 22.6121L55.008 20.653ZM54.818 19.437L52.8548 19.8187C52.8574 19.8324 52.8602 19.8461 52.8632 19.8597L54.818 19.437ZM54.495 18.012L52.5438 18.451C52.5481 18.4703 52.5528 18.4896 52.5577 18.5088L54.495 18.012ZM58.086 16.644L57.3652 14.7784C56.8321 14.9844 56.4126 15.4086 56.2125 15.9439C56.0125 16.4793 56.051 17.0747 56.3184 17.5798L58.086 16.644ZM60.594 15.675L62.3137 14.6539C61.8153 13.8145 60.7838 13.4576 59.8732 13.8094L60.594 15.675ZM61.354 17.005L59.6035 17.9724V17.9724L61.354 17.005ZM62.095 18.43L60.2965 19.3049C60.3061 19.3246 60.316 19.3442 60.3262 19.3635L62.095 18.43ZM62.665 19.646L63.4481 21.4863C64.4444 21.0623 64.9224 19.9225 64.5265 18.9147L62.665 19.646ZM59.986 20.786L58.0819 21.398C58.254 21.9332 58.6433 22.3713 59.1546 22.605C59.6658 22.8387 60.2518 22.8464 60.7691 22.6263L59.986 20.786ZM59.492 19.532L57.6487 20.3081C57.6545 20.3217 57.6603 20.3353 57.6664 20.3487L59.492 19.532ZM58.808 18.05L57.0191 18.9444V18.9444L58.808 18.05ZM46.914 15.846L47.4344 13.9149C46.4658 13.6539 45.4537 14.1508 45.0678 15.0768L46.914 15.846ZM49.593 16.568L51.4522 17.3053C51.6623 16.7753 51.6363 16.1807 51.3806 15.6711C51.125 15.1615 50.6639 14.7853 50.1134 14.6369L49.593 16.568ZM48.529 18.867L50.2945 19.8067L50.3007 19.795L48.529 18.867ZM47.351 20.9L46.5679 22.7403C47.464 23.1216 48.5046 22.802 49.0321 21.9834L47.351 20.9ZM44.672 19.76L43.0797 18.5498C42.7065 19.0409 42.5807 19.6767 42.7389 20.2728C42.897 20.869 43.3214 21.3588 43.8889 21.6003L44.672 19.76ZM45.432 18.639L43.7529 17.5525C43.7453 17.5643 43.7378 17.5761 43.7304 17.588L45.432 18.639ZM46.23 17.271L44.4691 16.3228C44.4661 16.3284 44.4631 16.3339 44.4602 16.3395L46.23 17.271ZM45.451 5.42H48.035V1.42H45.451V5.42ZM46.035 3.42V15.732H50.035V3.42H46.035ZM48.035 13.732H45.451V17.732H48.035V13.732ZM47.451 15.732V3.42H43.451V15.732H47.451ZM46.952 5.42H51.835V1.42H46.952V5.42ZM49.835 3.42V14.896H53.835V3.42H49.835ZM51.835 12.896H46.952V16.896H51.835V12.896ZM48.952 14.896V12.464H44.952V14.896H48.952ZM46.952 14.464H49.308V10.464H46.952V14.464ZM51.308 12.464V5.833H47.308V12.464H51.308ZM49.308 3.833H46.952V7.833H49.308V3.833ZM48.952 5.833V3.42H44.952V5.833H48.952ZM46.876 9.828H50.657V5.828H46.876V9.828ZM48.657 7.828V10.222H52.657V7.828H48.657ZM50.657 8.222H46.876V12.222H50.657V8.222ZM48.876 10.222V7.828H44.876V10.222H48.876ZM52.253 5.363H60.556V1.363H52.253V5.363ZM58.556 3.363V5.757H62.556V3.363H58.556ZM60.556 3.757H52.253V7.757H60.556V3.757ZM54.253 5.757V3.363H50.253V5.757H54.253ZM59.682 5.363H62.304V1.363H59.682V5.363ZM62.304 3.363C60.3075 3.24556 60.3075 3.24556 60.3075 3.24556C60.3075 3.24556 60.3075 3.24556 60.3075 3.24556C60.3075 3.24556 60.3075 3.24557 60.3075 3.24557C60.3075 3.24557 60.3075 3.24557 60.3075 3.24558C60.3075 3.24559 60.3075 3.24559 60.3075 3.2456C60.3075 3.24561 60.3074 3.24563 60.3074 3.24564C60.3074 3.24564 60.3074 3.24582 60.3074 3.24587C60.3074 3.24605 60.3074 3.24604 60.3074 3.24627C60.3074 3.24629 60.3074 3.24631 60.3074 3.24633C60.3074 3.24635 60.3074 3.24637 60.3074 3.24639C60.3074 3.24641 60.3074 3.24643 60.3074 3.24646C60.3074 3.24648 60.3074 3.2465 60.3074 3.24652C60.3074 3.24655 60.3074 3.24657 60.3074 3.24659C60.3074 3.24662 60.3074 3.24664 60.3074 3.24667C60.3074 3.24669 60.3074 3.24672 60.3074 3.24674C60.3074 3.24677 60.3074 3.24679 60.3074 3.24682C60.3074 3.24719 60.3073 3.24782 60.3073 3.2484C60.3073 3.24883 60.3073 3.24845 60.3073 3.24889C60.3073 3.24893 60.3073 3.24897 60.3073 3.24902C60.3072 3.24906 60.3072 3.24911 60.3072 3.24915C60.3072 3.24919 60.3072 3.24924 60.3072 3.24928C60.3072 3.24933 60.3072 3.24937 60.3072 3.24942C60.3072 3.24942 60.3072 3.24998 60.3072 3.24999C60.3072 3.25025 60.3072 3.25004 60.3072 3.25029C60.3072 3.25034 60.3072 3.2504 60.3072 3.25045C60.3072 3.2505 60.3072 3.25055 60.3072 3.2506C60.3071 3.25082 60.307 3.25301 60.307 3.25344C60.3069 3.25431 60.3069 3.25418 60.3069 3.2551C60.3069 3.25581 60.3068 3.25615 60.3068 3.25691C60.3067 3.25883 60.3067 3.25888 60.3065 3.26101C60.3065 3.2617 60.3065 3.26256 60.3064 3.2633C60.3063 3.26442 60.3063 3.26458 60.3063 3.26574C60.3063 3.26586 60.3061 3.26818 60.3061 3.26835C60.306 3.27084 60.3061 3.26856 60.306 3.27111C60.3058 3.27296 60.3059 3.27212 60.3058 3.27402C60.3058 3.27426 60.3057 3.2753 60.3057 3.27554C60.3057 3.27567 60.3057 3.2758 60.3057 3.27593C60.3057 3.27606 60.3057 3.27619 60.3056 3.27632C60.3056 3.27645 60.3056 3.27658 60.3056 3.27671C60.3056 3.27684 60.3056 3.27697 60.3056 3.2771C60.3056 3.27786 60.3053 3.28276 60.3052 3.28372C60.3052 3.28468 60.3051 3.28626 60.305 3.28727C60.305 3.28742 60.305 3.28758 60.305 3.28773C60.305 3.28788 60.305 3.28803 60.3049 3.28818C60.3049 3.28893 60.3049 3.28836 60.3049 3.28911C60.3049 3.28961 60.3048 3.29046 60.3048 3.29098C60.3045 3.29631 60.3046 3.29332 60.3043 3.29886C60.3043 3.29954 60.3043 3.29922 60.3043 3.29989C60.3042 3.30023 60.3042 3.30059 60.3042 3.30093C60.3042 3.30098 60.3041 3.30299 60.3041 3.30304C60.304 3.30383 60.3041 3.30333 60.304 3.30411C60.304 3.30429 60.304 3.30447 60.304 3.30465C60.304 3.30483 60.304 3.30501 60.3039 3.30519C60.3039 3.30587 60.3039 3.30561 60.3039 3.30628C60.3039 3.30643 60.3038 3.30723 60.3038 3.30738C60.3038 3.30838 60.3028 3.32446 60.3027 3.32631C60.2988 3.39209 60.2955 3.44894 60.2885 3.56856L64.2816 3.80344C64.2823 3.79048 64.2854 3.73733 64.286 3.72774C64.2864 3.721 64.2877 3.69957 64.288 3.69367C64.2882 3.69059 64.2888 3.68046 64.289 3.67759C64.2891 3.67515 64.2897 3.66436 64.2899 3.66213C64.2901 3.65828 64.2905 3.65095 64.2907 3.6473C64.291 3.64352 64.2914 3.63669 64.2916 3.63311C64.292 3.62533 64.2927 3.61356 64.2931 3.60661C64.2934 3.60241 64.2936 3.59831 64.2939 3.59431C64.294 3.59221 64.2941 3.59045 64.2942 3.5884C64.2943 3.58732 64.2943 3.58657 64.2944 3.5855C64.2945 3.58372 64.2944 3.58441 64.2945 3.58264C64.2949 3.57601 64.2948 3.57802 64.2952 3.5716C64.2955 3.56668 64.2955 3.5659 64.2958 3.56119C64.2974 3.53428 64.2986 3.51409 64.2994 3.50063C64.2996 3.49714 64.3002 3.48561 64.3003 3.48549C64.3004 3.48375 64.3004 3.48261 64.3005 3.4817C64.3005 3.48144 64.3005 3.48081 64.3005 3.48076C64.3005 3.48073 64.3005 3.48071 64.3005 3.48068C64.3005 3.48068 64.3005 3.48062 64.3005 3.48062C64.3005 3.48056 64.3005 3.48056 64.3005 3.48052C64.3006 3.4805 64.3006 3.48047 64.3006 3.48046C64.3006 3.48046 64.3006 3.48046 64.3006 3.48045C64.3006 3.48045 64.3006 3.48045 64.3006 3.48045C64.3006 3.48045 64.3006 3.48044 64.3006 3.48044C64.3006 3.48044 64.3006 3.48044 62.304 3.363ZM60.285 3.686C60.285 3.86647 60.2795 3.99143 60.2729 4.07091L64.2591 4.40309C64.2778 4.17857 64.285 3.9362 64.285 3.686H60.285ZM60.2681 4.14618C60.2312 4.95639 60.1831 5.62127 60.1257 6.14888L64.1023 6.58112C64.1716 5.9434 64.2248 5.18961 64.2639 4.32782L60.2681 4.14618ZM60.1262 6.14414C60.0691 6.65809 60.0032 6.98329 59.9494 7.16482L63.7846 8.30118C63.9335 7.79871 64.0322 7.21191 64.1018 6.58586L60.1262 6.14414ZM59.931 7.23108C59.9209 7.27007 59.912 7.29852 59.9053 7.31779C59.8986 7.33714 59.8949 7.34496 59.8956 7.34333C59.8964 7.34174 59.9027 7.32816 59.9167 7.30578C59.9307 7.28331 59.9535 7.25003 59.9875 7.21041L63.0245 9.81358C63.4502 9.31692 63.6736 8.73404 63.803 8.23492L59.931 7.23108ZM60.0112 7.18327C59.9915 7.20544 59.9853 7.20833 59.9951 7.20101C60.0057 7.19314 60.0291 7.1778 60.0649 7.16273L61.6171 10.8493C62.1753 10.6142 62.6331 10.2544 63.0008 9.84072L60.0112 7.18327ZM60.0649 7.16273C60.0269 7.17874 59.9694 7.19617 59.8809 7.20421L60.2431 11.1878C60.7119 11.1452 61.1738 11.0359 61.6171 10.8493L60.0649 7.16273ZM59.7501 7.22047C59.6253 7.24017 59.4008 7.26164 59.0475 7.27304L59.1765 11.271C59.6085 11.257 60.0173 11.2278 60.3739 11.1715L59.7501 7.22047ZM59.0475 7.27304C58.7001 7.28425 58.323 7.28447 57.9151 7.27282L57.8009 11.2712C58.2797 11.2849 58.7385 11.2851 59.1765 11.271L59.0475 7.27304ZM59.8566 9.19797C59.836 8.64203 59.7254 8.09032 59.558 7.55445L55.74 8.74755C55.8259 9.02235 55.8546 9.21797 55.8594 9.34603L59.8566 9.19797ZM59.5631 7.57098C59.4004 7.03429 59.1869 6.51611 58.9014 6.04711L55.4846 8.12689C55.5538 8.24056 55.6443 8.43171 55.735 8.73101L59.5631 7.57098ZM57.0396 9.08111C57.384 9.1076 57.7015 9.12796 57.9909 9.14174L58.1811 5.14626C57.9385 5.13471 57.6607 5.11707 57.3464 5.09289L57.0396 9.08111ZM57.9909 9.14174C58.2689 9.15497 58.5143 9.163 58.713 9.163V5.163C58.6077 5.163 58.4351 5.15836 58.1811 5.14626L57.9909 9.14174ZM58.713 9.163C58.9449 9.163 59.2865 9.14336 59.6494 9.02237L58.3846 5.22763C58.5001 5.18913 58.5896 5.17473 58.6359 5.16894C58.6843 5.1629 58.7122 5.163 58.713 5.163V9.163ZM59.5665 9.04805C60.0324 8.91492 60.4019 8.6635 60.6782 8.38722L57.8498 5.55878C57.9741 5.4345 58.179 5.28441 58.4676 5.20196L59.5665 9.04805ZM60.7825 8.27458C61.196 7.79218 61.3423 7.22042 61.4064 6.93186L57.5016 6.06414C57.4918 6.10837 57.4915 6.095 57.5116 6.04497C57.5223 6.01805 57.5428 5.97085 57.5767 5.9108C57.6101 5.8515 57.6641 5.76637 57.7455 5.67142L60.7825 8.27458ZM61.4111 6.91002C61.4876 6.54661 61.54 6.10037 61.5801 5.61909L57.5939 5.28691C57.558 5.71762 57.5217 5.96806 57.4969 6.08598L61.4111 6.91002ZM61.5801 5.61909C61.6218 5.11842 61.6549 4.49416 61.6808 3.75613L57.6832 3.61587C57.6585 4.32184 57.6282 4.87558 57.5939 5.28691L61.5801 5.61909ZM61.682 3.686V3.363H57.682V3.686H61.682ZM54.932 6.085H57.611V2.085H54.932V6.085ZM55.6159 3.94499C55.5722 4.56839 55.4861 5.12617 55.3644 5.62326L59.2496 6.57474C59.4319 5.83049 59.5485 5.0456 59.6061 4.22501L55.6159 3.94499ZM55.3575 5.65225C55.2689 6.03899 55.1244 6.37745 54.9271 6.68102L58.2809 8.86098C58.7422 8.15122 59.0664 7.37501 59.2565 6.54575L55.3575 5.65225ZM54.9202 6.69167C54.7769 6.91535 54.5376 7.17271 54.1373 7.44247L56.3727 10.7595C57.1378 10.244 57.7978 9.61464 58.2878 8.85033L54.9202 6.69167ZM54.1625 7.42578C53.7921 7.66731 53.2261 7.92782 52.4051 8.17193L53.5449 12.0061C54.5985 11.6928 55.5526 11.2947 56.3475 10.7762L54.1625 7.42578ZM54.8568 9.41156C54.6612 8.86838 54.3596 8.35025 54.017 7.86751L50.755 10.1825C50.9697 10.4851 51.0608 10.6763 51.0932 10.7664L54.8568 9.41156ZM54.0341 7.89194C53.6973 7.40214 53.3258 6.94838 52.9108 6.57293L50.2272 9.53907C50.3442 9.64495 50.5173 9.83719 50.7379 10.1581L54.0341 7.89194ZM52.0698 9.99229C52.8915 9.77977 53.6551 9.51214 54.2926 9.15589L52.3414 5.66411C52.1175 5.78919 51.7158 5.95223 51.0682 6.11971L52.0698 9.99229ZM54.331 9.13387C54.9576 8.76529 55.5368 8.27763 55.9599 7.6305L52.6121 5.4415C52.6045 5.45304 52.5377 5.54804 52.303 5.68613L54.331 9.13387ZM55.9304 7.67442C56.3232 7.107 56.5815 6.47587 56.7077 5.80258L52.7763 5.06542C52.7505 5.20279 52.7048 5.30633 52.6416 5.39758L55.9304 7.67442ZM56.6958 5.86139C56.8076 5.35044 56.8823 4.80746 56.9261 4.23839L52.9379 3.93161C52.9057 4.35054 52.8538 4.70689 52.7882 5.00661L56.6958 5.86139ZM53.407 11.837V13.395H57.407V11.837H53.407ZM55.407 15.395H58.96V11.395H55.407V15.395ZM60.96 13.395V11.837H56.96V13.395H60.96ZM58.96 9.837H55.407V13.837H58.96V9.837ZM52.823 11.671H61.696V7.671H52.823V11.671ZM59.696 9.671V15.58H63.696V9.671H59.696ZM61.696 13.58H52.823V17.58H61.696V13.58ZM54.823 15.58V9.671H50.823V15.58H54.823ZM50.3703 18.6265L52.9353 18.2845L52.4067 14.3195L49.8417 14.6615L50.3703 18.6265ZM50.7084 16.6868C50.8237 17.2748 50.9239 17.9261 51.0075 18.6428L54.9805 18.1792C54.8868 17.3759 54.7717 16.6212 54.6336 15.9172L50.7084 16.6868ZM51.0121 18.6797C51.1076 19.3835 51.1553 19.9387 51.1656 20.3598L55.1644 20.2622C55.1493 19.6446 55.0831 18.9331 54.9759 18.1423L51.0121 18.6797ZM52.8474 18.3364L50.1304 18.7734L50.7656 22.7226L53.4826 22.2856L52.8474 18.3364ZM52.448 20.748C52.448 20.348 52.4338 19.899 52.4071 19.405L48.4129 19.621C48.4369 20.0644 48.448 20.4387 48.448 20.748H52.448ZM52.4071 19.405C52.38 18.9036 52.3395 18.3854 52.2861 17.851L48.3059 18.249C48.3538 18.7279 48.3894 19.1851 48.4129 19.621L52.4071 19.405ZM52.2861 17.851C52.2312 17.3024 52.1615 16.7835 52.0756 16.2964L48.1364 16.9916C48.2025 17.3658 48.2595 17.7842 48.3059 18.249L52.2861 17.851ZM54.474 18.5735L57.077 18.0985L56.359 14.1635L53.756 14.6385L54.474 18.5735ZM54.8384 16.8145C54.9734 17.1856 55.1054 17.5924 55.2339 18.0361L59.0761 16.9239C58.9259 16.4049 58.7666 15.9123 58.5976 15.4475L54.8384 16.8145ZM55.2526 18.097C55.3861 18.5087 55.4958 18.9099 55.5826 19.3009L59.4874 18.4331C59.3716 17.9121 59.2279 17.3886 59.0574 16.863L55.2526 18.097ZM55.5947 19.3521C55.6969 19.7606 55.7636 20.0964 55.8021 20.3658L59.7619 19.8002C59.6991 19.3603 59.6011 18.8854 59.4753 18.3819L55.5947 19.3521ZM57.3795 18.1239L54.6055 18.6939L55.4106 22.6121L58.1846 22.0421L57.3795 18.1239ZM57.0025 20.5053C56.9683 20.0426 56.8867 19.5409 56.7728 19.0143L52.8632 19.8597C52.952 20.2704 52.9971 20.5794 53.0135 20.8007L57.0025 20.5053ZM56.7812 19.0553C56.6844 18.5572 56.5678 18.0437 56.4323 17.5152L52.5577 18.5088C52.6755 18.9683 52.7743 19.4048 52.8548 19.8187L56.7812 19.0553ZM56.4462 17.573C56.3207 17.0152 56.1785 16.4868 56.0179 15.9904L52.2121 17.2216C52.3302 17.5865 52.4413 17.9955 52.5438 18.451L56.4462 17.573ZM58.8068 18.5096L61.3148 17.5406L59.8732 13.8094L57.3652 14.7784L58.8068 18.5096ZM58.8743 16.6961C59.1029 17.081 59.3459 17.5062 59.6035 17.9724L63.1045 16.0376C62.8301 15.5411 62.5665 15.0796 62.3137 14.6539L58.8743 16.6961ZM59.6035 17.9724C59.8536 18.425 60.0845 18.8691 60.2965 19.3049L63.8935 17.5551C63.6495 17.0535 63.3864 16.5477 63.1045 16.0376L59.6035 17.9724ZM60.3262 19.3635C60.5435 19.7751 60.6989 20.1109 60.8035 20.3773L64.5265 18.9147C64.3525 18.4717 64.1279 17.9969 63.8638 17.4965L60.3262 19.3635ZM61.8819 17.8057L59.2029 18.9457L60.7691 22.6263L63.4481 21.4863L61.8819 17.8057ZM61.8901 20.174C61.7466 19.7278 61.5517 19.2384 61.3176 18.7153L57.6664 20.3487C57.863 20.7883 57.9974 21.1349 58.0819 21.398L61.8901 20.174ZM61.3353 18.7559C61.1144 18.2313 60.868 17.6979 60.5969 17.1556L57.0191 18.9444C57.2547 19.4155 57.4643 19.87 57.6487 20.3081L61.3353 18.7559ZM60.5969 17.1556C60.3377 16.6372 60.0899 16.1546 59.8536 15.7082L56.3184 17.5798C56.5381 17.9948 56.7717 18.4495 57.0191 18.9444L60.5969 17.1556ZM46.3936 17.7771L49.0726 18.4991L50.1134 14.6369L47.4344 13.9149L46.3936 17.7771ZM47.7338 15.8307C47.4716 16.4921 47.1473 17.1946 46.7573 17.939L50.3007 19.795C50.7468 18.9434 51.1318 18.1132 51.4522 17.3053L47.7338 15.8307ZM46.7635 17.9273C46.3641 18.6777 45.9995 19.3051 45.6699 19.8166L49.0321 21.9834C49.4372 21.3549 49.8579 20.6269 50.2945 19.8067L46.7635 17.9273ZM48.1341 19.0597L45.4551 17.9197L43.8889 21.6003L46.5679 22.7403L48.1341 19.0597ZM46.2643 20.9702C46.5528 20.5906 46.8424 20.1615 47.1336 19.69L43.7304 17.588C43.4896 17.9779 43.2726 18.296 43.0797 18.5498L46.2643 20.9702ZM47.1111 19.7255C47.4242 19.2416 47.7203 18.7337 47.9998 18.2025L44.4602 16.3395C44.2331 16.771 43.9971 17.175 43.7529 17.5525L47.1111 19.7255ZM47.9909 18.2192C48.2842 17.6746 48.5416 17.1398 48.7602 16.6152L45.0678 15.0768C44.9064 15.4642 44.7078 15.8794 44.4691 16.3228L47.9909 18.2192ZM69.733 7.391V5.391C68.6284 5.391 67.733 6.28643 67.733 7.391H69.733ZM82.482 7.391H84.482C84.482 6.28643 83.5866 5.391 82.482 5.391V7.391ZM82.482 10.26V12.26C83.5866 12.26 84.482 11.3646 84.482 10.26H82.482ZM69.733 10.26H67.733C67.733 11.3646 68.6284 12.26 69.733 12.26V10.26ZM75.452 2.774V0.773999C74.3474 0.773999 73.452 1.66943 73.452 2.774H75.452ZM78.454 2.774H80.454C80.454 1.66943 79.5586 0.773999 78.454 0.773999V2.774ZM78.454 8.512V10.512C79.5586 10.512 80.454 9.61657 80.454 8.512H78.454ZM75.452 8.512H73.452C73.452 9.61657 74.3474 10.512 75.452 10.512V8.512ZM68.289 3.116V1.116C67.1844 1.116 66.289 2.01143 66.289 3.116H68.289ZM71.196 3.116H73.196C73.196 2.01143 72.3006 1.116 71.196 1.116V3.116ZM71.082 12.578L69.0876 12.4284C69.087 12.4367 69.0864 12.445 69.0859 12.4532L71.082 12.578ZM70.645 15.58L68.6962 15.1303C68.6944 15.1382 68.6926 15.1461 68.6909 15.1541L70.645 15.58ZM69.657 18.43L67.8583 17.5556L69.657 18.43ZM67.871 20.957L66.18 22.025C66.5077 22.5438 67.0555 22.8835 67.6659 22.9465C68.2764 23.0094 68.8819 22.7886 69.3086 22.3475L67.871 20.957ZM67.263 20.159L65.7538 21.4714L67.263 20.159ZM66.465 19.304L67.8792 17.8898C67.8682 17.8788 67.8572 17.868 67.8459 17.8573L66.465 19.304ZM65.705 18.658L64.2466 17.2894C63.8531 17.7087 63.6592 18.277 63.7142 18.8494C63.7692 19.4217 64.0679 19.9427 64.534 20.2794L65.705 18.658ZM67.415 15.903L69.2953 16.5846L67.415 15.903ZM68.118 12.749L66.1289 12.5408C66.1281 12.5485 66.1273 12.5561 66.1266 12.5638L68.118 12.749ZM69.676 12.331V10.331C68.5714 10.331 67.676 11.2264 67.676 12.331H69.676ZM80.62 12.331H82.62C82.62 11.2264 81.7246 10.331 80.62 10.331V12.331ZM80.62 20.805V22.805C81.7246 22.805 82.62 21.9096 82.62 20.805H80.62ZM77.561 20.805H75.561C75.561 21.9096 76.4564 22.805 77.561 22.805V20.805ZM77.561 15.238H79.561C79.561 14.1334 78.6656 13.238 77.561 13.238V15.238ZM69.676 15.238H67.676C67.676 16.3426 68.5714 17.238 69.676 17.238V15.238ZM69.733 9.391H82.482V5.391H69.733V9.391ZM80.482 7.391V10.26H84.482V7.391H80.482ZM82.482 8.26H69.733V12.26H82.482V8.26ZM71.733 10.26V7.391H67.733V10.26H71.733ZM75.452 4.774H78.454V0.773999H75.452V4.774ZM76.454 2.774V8.512H80.454V2.774H76.454ZM78.454 6.512H75.452V10.512H78.454V6.512ZM77.452 8.512V2.774H73.452V8.512H77.452ZM68.289 5.116H71.196V1.116H68.289V5.116ZM69.196 3.116V9.595H73.196V3.116H69.196ZM69.196 9.595C69.196 10.5184 69.16 11.4628 69.0876 12.4284L73.0764 12.7276C73.156 11.6665 73.196 10.6223 73.196 9.595H69.196ZM69.0859 12.4532C69.0294 13.3573 68.8995 14.2493 68.6962 15.1303L72.5938 16.0297C72.8465 14.9347 73.0079 13.8254 73.0781 12.7028L69.0859 12.4532ZM68.6909 15.1541C68.5094 15.9865 68.2324 16.786 67.8583 17.5556L71.4557 19.3044C71.9683 18.25 72.3499 17.1495 72.5991 16.0059L68.6909 15.1541ZM67.8583 17.5556C67.5127 18.2665 67.0427 18.9366 66.4334 19.5665L69.3086 22.3475C70.1939 21.4321 70.9146 20.4175 71.4557 19.3044L67.8583 17.5556ZM69.562 19.889C69.3404 19.5383 69.0705 19.1896 68.7722 18.8466L65.7538 21.4714C65.9622 21.711 66.0976 21.8944 66.18 22.025L69.562 19.889ZM68.7722 18.8466C68.4878 18.5195 68.19 18.2006 67.8792 17.8898L65.0508 20.7182C65.2973 20.9647 65.5315 21.2158 65.7538 21.4714L68.7722 18.8466ZM67.8459 17.8573C67.5236 17.5496 67.1992 17.2701 66.876 17.0366L64.534 20.2794C64.6668 20.3753 64.8491 20.5264 65.084 20.7507L67.8459 17.8573ZM67.1634 20.0266C68.1128 19.0149 68.831 17.8653 69.2953 16.5846L65.5347 15.2214C65.2643 15.9674 64.8425 16.6544 64.2466 17.2894L67.1634 20.0266ZM69.2953 16.5846C69.7215 15.4088 69.9925 14.1905 70.1094 12.9342L66.1266 12.5638C66.0408 13.4861 65.8432 14.3705 65.5347 15.2214L69.2953 16.5846ZM70.1071 12.9572C70.2279 11.8033 70.289 10.676 70.289 9.576H66.289C66.289 10.528 66.2361 11.5161 66.1289 12.5408L70.1071 12.9572ZM70.289 9.576V3.116H66.289V9.576H70.289ZM69.676 14.331H80.62V10.331H69.676V14.331ZM78.62 12.331V20.805H82.62V12.331H78.62ZM80.62 18.805H77.561V22.805H80.62V18.805ZM79.561 20.805V15.238H75.561V20.805H79.561ZM77.561 13.238H69.676V17.238H77.561V13.238ZM71.676 15.238V12.331H67.676V15.238H71.676Z" fill="#002368" mask="url(#path-1-outside-1_3_48)"/>
</svg>
